<svg width="48" height="48" viewBox="0 0 48 48" fill="none" xmlns="http://www.w3.org/2000/svg">
<path d="M41 0H7C6.20435 0 5.44129 0.31607 4.87868 0.87868C4.31607 1.44129 4 2.20435 4 3V41C4.00174 41.6189 4.19488 42.2222 4.55294 42.7271C4.911 43.2319 5.41645 43.6137 6 43.82V47C6 47.2652 6.10536 47.5196 6.29289 47.7071C6.48043 47.8946 6.73478 48 7 48H13C13.2652 48 13.5196 47.8946 13.7071 47.7071C13.8946 47.5196 14 47.2652 14 47V44H34V47C34 47.2652 34.1054 47.5196 34.2929 47.7071C34.4804 47.8946 34.7348 48 35 48H41C41.2652 48 41.5196 47.8946 41.7071 47.7071C41.8946 47.5196 42 47.2652 42 47V43.82C42.5835 43.6137 43.089 43.2319 43.4471 42.7271C43.8051 42.2222 43.9983 41.6189 44 41V3C44 2.20435 43.6839 1.44129 43.1213 0.87868C42.5587 0.31607 41.7956 0 41 0ZM6 10H42V38H6V10ZM6 3C6 2.73478 6.10536 2.48043 6.29289 2.29289C6.48043 2.10536 6.73478 2 7 2H41C41.2652 2 41.5196 2.10536 41.7071 2.29289C41.8946 2.48043 42 2.73478 42 3V8H6V3ZM12 46H8V44H12V46ZM40 46H36V44H40V46ZM42 41C42 41.2652 41.8946 41.5196 41.7071 41.7071C41.5196 41.8946 41.2652 42 41 42H7C6.73478 42 6.48043 41.8946 6.29289 41.7071C6.10536 41.5196 6 41.2652 6 41V40H42V41Z" fill="#0000FF"/>
<path d="M39 12H9C8.73478 12 8.48043 12.1054 8.29289 12.2929C8.10536 12.4804 8 12.7348 8 13V35C8 35.2652 8.10536 35.5196 8.29289 35.7071C8.48043 35.8946 8.73478 36 9 36H39C39.2652 36 39.5196 35.8946 39.7071 35.7071C39.8946 35.5196 40 35.2652 40 35V13C40 12.7348 39.8946 12.4804 39.7071 12.2929C39.5196 12.1054 39.2652 12 39 12ZM38 14V26H26C26 18.34 26.16 18.54 25.53 18.15C24.9 17.76 24.66 18.05 22 19.38V19C22.0003 18.8301 21.9574 18.6628 21.8751 18.5141C21.7929 18.3654 21.6741 18.2401 21.53 18.15C20.92 17.77 20.66 18.05 18 19.38V19C18.0003 18.8301 17.9574 18.6628 17.8751 18.5141C17.7929 18.3654 17.6741 18.2401 17.53 18.15C16.92 17.77 16.66 18.05 14 19.38V19C14.0003 18.8301 13.9574 18.6628 13.8751 18.5141C13.7929 18.3654 13.6741 18.2401 13.53 18.15C12.92 17.77 12.66 18.05 10 19.38V14H38ZM20 31.38C17.68 30.22 18 30.7 18 28H20V31.38ZM16 31.38C13.68 30.22 14 30.7 14 28H16V31.38ZM12 31.38C9.68 30.22 10 30.7 10 28H12V31.38ZM20 26H18C18 21 17.56 21.84 20 20.62V26ZM16 26H14C14 21 13.56 21.84 16 20.62V26ZM12 26H10C10 21 9.56 21.84 12 20.62V26ZM22 28H24V31.38C21.68 30.22 22 30.7 22 28ZM22 26C22 21 21.56 21.84 24 20.62V26H22ZM10 34V32.62C12.64 33.94 12.91 34.23 13.53 33.85C13.7169 33.7106 13.8602 33.521 13.9434 33.3032C14.0267 33.0854 14.0463 32.8485 14 32.62C16.79 34 16.68 34 17 34C17.2652 34 17.5196 33.8946 17.7071 33.7071C17.8946 33.5196 18 33.2652 18 33V32.62C20.64 33.94 20.91 34.23 21.53 33.85C21.7169 33.7106 21.8602 33.521 21.9435 33.3032C22.0267 33.0854 22.0463 32.8485 22 32.62C24.79 34 24.68 34 25 34C25.2652 34 25.5196 33.8946 25.7071 33.7071C25.8946 33.5196 26 33.2652 26 33V28H38V34H10ZM9 4C8.73478 4 8.48043 4.10536 8.29289 4.29289C8.10536 4.48043 8 4.73478 8 5C8 5.26522 8.10536 5.51957 8.29289 5.70711C8.48043 5.89464 8.73478 6 9 6C9.26522 6 9.51957 5.89464 9.70711 5.70711C9.89464 5.51957 10 5.26522 10 5C10 4.73478 9.89464 4.48043 9.70711 4.29289C9.51957 4.10536 9.26522 4 9 4ZM13 4C12.7348 4 12.4804 4.10536 12.2929 4.29289C12.1054 4.48043 12 4.73478 12 5C12 5.26522 12.1054 5.51957 12.2929 5.70711C12.4804 5.89464 12.7348 6 13 6C13.2652 6 13.5196 5.89464 13.7071 5.70711C13.8946 5.51957 14 5.26522 14 5C14 4.73478 13.8946 4.48043 13.7071 4.29289C13.5196 4.10536 13.2652 4 13 4ZM17 4C16.7348 4 16.4804 4.10536 16.2929 4.29289C16.1054 4.48043 16 4.73478 16 5C16 5.26522 16.1054 5.51957 16.2929 5.70711C16.4804 5.89464 16.7348 6 17 6C17.2652 6 17.5196 5.89464 17.7071 5.70711C17.8946 5.51957 18 5.26522 18 5C18 4.73478 17.8946 4.48043 17.7071 4.29289C17.5196 4.10536 17.2652 4 17 4ZM39 4H27C26.7348 4 26.4804 4.10536 26.2929 4.29289C26.1054 4.48043 26 4.73478 26 5C26 5.26522 26.1054 5.51957 26.2929 5.70711C26.4804 5.89464 26.7348 6 27 6H39C39.2652 6 39.5196 5.89464 39.7071 5.70711C39.8946 5.51957 40 5.26522 40 5C40 4.73478 39.8946 4.48043 39.7071 4.29289C39.5196 4.10536 39.2652 4 39 4Z" fill="#0000FF"/>
</svg>
