<svg width="32" height="32" viewBox="0 0 32 32" fill="none" xmlns="http://www.w3.org/2000/svg">
<path d="M18.842 4.504C17.859 4.504 16.875 4.876 16.125 5.623C15.7686 5.97817 15.4858 6.40021 15.2928 6.86491C15.0999 7.32961 15.0005 7.82783 15.0005 8.331C15.0005 8.83417 15.0999 9.33239 15.2928 9.79709C15.4858 10.2618 15.7686 10.6838 16.125 11.039C16.1296 11.0431 16.1343 11.0471 16.139 11.051L21.646 16.18C21.7384 16.266 21.8598 16.3138 21.986 16.314H21.996C22.1222 16.3138 22.2436 16.266 22.336 16.18L27.846 11.05C29.409 9.595 29.356 7.116 27.857 5.623C27.8102 5.57579 27.7544 5.5384 27.693 5.513H27.691C26.184 4.163 23.876 4.178 22.426 5.623L21.99 6.057L21.557 5.623C21.2003 5.267 20.7769 4.98483 20.311 4.79265C19.8452 4.60046 19.346 4.50204 18.842 4.503V4.504ZM18.842 5.494V5.496C19.567 5.496 20.292 5.775 20.852 6.332L21.639 7.115C21.7327 7.20812 21.8594 7.26039 21.9915 7.26039C22.1236 7.26039 22.2503 7.20812 22.344 7.115L23.131 6.332C23.3944 6.06702 23.7076 5.85673 24.0525 5.71323C24.3975 5.56973 24.7674 5.49586 25.141 5.49586C25.5146 5.49586 25.8845 5.56973 26.2295 5.71323C26.5744 5.85673 26.8876 6.06702 27.151 6.332C27.152 6.332 27.153 6.332 27.154 6.332C28.271 7.446 28.304 9.256 27.164 10.318L21.992 15.133L16.832 10.33C16.5663 10.0691 16.3552 9.75784 16.2112 9.41445C16.0671 9.07105 15.9929 8.70239 15.9929 8.33C15.9929 7.9576 16.0671 7.58894 16.2112 7.24555C16.3552 6.90215 16.5663 6.59091 16.832 6.33C17.0955 6.06522 17.4087 5.85507 17.7537 5.71161C18.0986 5.56815 18.4684 5.4942 18.842 5.494ZM1.504 13.756C1.37139 13.756 1.24421 13.8087 1.15044 13.9024C1.05668 13.9962 1.004 14.1234 1.004 14.256V24.439C1.004 24.5716 1.05668 24.6988 1.15044 24.7926C1.24421 24.8863 1.37139 24.939 1.504 24.939H6.975C7.10761 24.939 7.23478 24.8863 7.32855 24.7926C7.42232 24.6988 7.475 24.5716 7.475 24.439V23.703L16.815 26.867C16.8279 26.8709 16.8409 26.8742 16.854 26.877C17.941 27.153 19.196 26.989 20.144 26.352L29.816 21.096C29.8187 21.096 29.8213 21.096 29.824 21.096L30.061 20.961C30.452 20.7405 30.7486 20.3844 30.8947 19.96C31.0408 19.5357 31.0263 19.0724 30.854 18.658C30.547 17.933 29.944 17.6 29.473 17.531V17.527C29.1857 17.4863 28.8929 17.5085 28.615 17.592C28.5983 17.5981 28.5819 17.6051 28.566 17.613L23.234 20.086C23.241 20.018 23.256 19.954 23.256 19.885C23.256 18.761 22.326 17.848 21.197 17.848H16.757C16.739 17.814 16.717 17.766 16.699 17.734C16.4618 17.3047 16.163 16.9125 15.812 16.57C14.8379 15.6207 13.5302 15.0914 12.17 15.096H7.475V14.256C7.475 14.1234 7.42232 13.9962 7.32855 13.9024C7.23478 13.8087 7.10761 13.756 6.975 13.756H1.504ZM2.004 14.756H6.475V23.939H2.004V14.756ZM7.474 16.096H12.17C12.8464 16.0931 13.5134 16.2544 14.1138 16.566C14.7142 16.8776 15.23 17.3302 15.617 17.885C15.691 17.993 15.761 18.104 15.824 18.219C15.903 18.36 15.956 18.447 15.998 18.545L16.127 18.848H21.197C21.797 18.848 22.256 19.306 22.256 19.885C22.256 20.319 21.997 20.682 21.616 20.838L21.609 20.84C21.483 20.89 21.345 20.92 21.197 20.92H14.242V21.92H21.197C21.407 21.92 21.604 21.878 21.795 21.82C21.8544 21.816 21.9127 21.8015 21.967 21.777L28.945 18.541C28.954 18.541 29.119 18.487 29.328 18.518C29.543 18.548 29.748 18.608 29.934 19.045C30.0147 19.2331 30.0219 19.4446 29.9542 19.6378C29.8864 19.8309 29.7486 19.9916 29.568 20.088L29.334 20.218L19.627 25.496C19.6129 25.5037 19.5993 25.512 19.586 25.521C18.926 25.965 17.902 26.111 17.102 25.908H17.1L7.475 22.648L7.474 16.096Z" fill="#0000FF"/>
</svg>
