<svg width="210" height="31" viewBox="0 0 210 31" fill="none" xmlns="http://www.w3.org/2000/svg">
<g clip-path="url(#clip0_47_32)">
<mask id="mask0_47_32" style="mask-type:luminance" maskUnits="userSpaceOnUse" x="0" y="0" width="210" height="31">
<path d="M210 0H0V31H210V0Z" fill="white"/>
</mask>
<g mask="url(#mask0_47_32)">
<path d="M11.5469 25.1562C8.5052 25.1562 6.2552 24.3542 4.79687 22.75C3.33853 21.1458 2.60938 18.651 2.60938 15.2656C2.60938 8.67188 5.60415 5.375 11.5938 5.375C12.4688 5.375 13.3177 5.46875 14.1406 5.65625C14.9635 5.83333 15.6302 6.05729 16.1406 6.32812C16.651 6.59896 16.9062 6.85938 16.9062 7.10938C16.9062 7.26562 16.849 7.47396 16.7344 7.73438C16.6302 7.99479 16.5052 8.22396 16.3594 8.42188C16.2135 8.61977 16.0833 8.71875 15.9688 8.71875C15.9167 8.71875 15.7708 8.65104 15.5312 8.51562C14.9896 8.22396 14.4219 7.97917 13.8281 7.78125C13.2344 7.58333 12.5104 7.48438 11.6562 7.48438C9.41667 7.48438 7.76562 8.10938 6.70312 9.35938C5.65104 10.599 5.12498 12.5781 5.12498 15.2969C5.12498 17.9531 5.64583 19.9115 6.6875 21.1719C7.73958 22.4219 9.35938 23.0469 11.5469 23.0469C12.4635 23.0469 13.25 22.9375 13.9062 22.7188C14.5625 22.5 15.1927 22.2292 15.7969 21.9062C16.0885 21.75 16.2656 21.6719 16.3281 21.6719C16.4427 21.6719 16.5729 21.7708 16.7188 21.9688C16.875 22.1667 17.0104 22.3906 17.125 22.6406C17.2396 22.8802 17.2969 23.0521 17.2969 23.1562C17.2969 23.4167 17.0312 23.7083 16.5 24.0312C15.9792 24.3438 15.276 24.6094 14.3906 24.8281C13.5156 25.0469 12.5677 25.1562 11.5469 25.1562ZM24.0938 25.1562C23.1667 25.1562 22.3385 24.875 21.6094 24.3125C20.8802 23.75 20.5156 22.7552 20.5156 21.3281V4.71875C20.5156 4.3125 20.8854 4.10938 21.625 4.10938H21.75C22.4792 4.10938 22.8438 4.3125 22.8438 4.71875V21.1094C22.8438 21.8698 22.9792 22.401 23.25 22.7031C23.5208 23.0052 23.8854 23.1562 24.3438 23.1562C24.6875 23.1562 24.9583 23.1354 25.1562 23.0938C25.3542 23.0521 25.4844 23.0312 25.5469 23.0312C25.7135 23.0312 25.849 23.1979 25.9531 23.5312C26.0677 23.8646 26.125 24.1302 26.125 24.3281C26.125 24.8802 25.4479 25.1562 24.0938 25.1562ZM34.8594 25.1562C32.5573 25.1562 30.8438 24.5573 29.7188 23.3594C28.6042 22.151 28.0469 20.3073 28.0469 17.8281C28.0469 15.3698 28.5938 13.5052 29.6875 12.2344C30.7812 10.9531 32.3906 10.3125 34.5156 10.3125C36.4115 10.3125 37.8385 10.9271 38.7969 12.1562C39.7656 13.3854 40.25 15.1875 40.25 17.5625C40.25 17.6667 40.1927 17.8125 40.0781 18C39.974 18.1771 39.8438 18.3385 39.6875 18.4844C39.5417 18.6198 39.4167 18.6875 39.3125 18.6875H30.5469C30.6615 20.2396 31.0573 21.375 31.7344 22.0938C32.4219 22.8021 33.4531 23.1562 34.8281 23.1562C35.599 23.1562 36.2604 23.0625 36.8125 22.875C37.375 22.6875 37.9167 22.4583 38.4375 22.1875C38.4896 22.1667 38.5677 22.1302 38.6719 22.0781C38.776 22.026 38.849 22 38.8906 22C39.0052 22 39.1354 22.0938 39.2812 22.2812C39.4375 22.4583 39.5677 22.6615 39.6719 22.8906C39.7865 23.1094 39.8438 23.2708 39.8438 23.375C39.8438 23.6042 39.6146 23.8594 39.1562 24.1406C38.6979 24.4219 38.0833 24.6615 37.3125 24.8594C36.5521 25.0573 35.7344 25.1562 34.8594 25.1562ZM37.7656 16.6875C37.7656 13.7708 36.6562 12.3125 34.4375 12.3125C32.0521 12.3125 30.7552 13.7708 30.5469 16.6875H37.7656ZM47.625 25.1562C46.2083 25.1562 45.0625 24.8073 44.1875 24.1094C43.3125 23.4115 42.875 22.375 42.875 21C42.875 19.5521 43.3177 18.4635 44.2031 17.7344C45.0885 16.9948 46.1667 16.5208 47.4375 16.3125C48.7188 16.0938 50.2708 15.9688 52.0938 15.9375V14.625C52.0938 13.9271 51.8542 13.3698 51.375 12.9531C50.9062 12.526 50.1302 12.3125 49.0469 12.3125C48.224 12.3125 47.5 12.4115 46.875 12.6094C46.2604 12.7969 45.6823 13.026 45.1406 13.2969C44.9115 13.4115 44.7708 13.4688 44.7188 13.4688C44.5938 13.4688 44.4531 13.3802 44.2969 13.2031C44.151 13.0156 44.0208 12.8073 43.9062 12.5781C43.8021 12.349 43.75 12.1823 43.75 12.0781C43.75 11.8385 43.9948 11.5781 44.4844 11.2969C44.9844 11.0156 45.6354 10.7812 46.4375 10.5938C47.2396 10.4062 48.0781 10.3125 48.9531 10.3125C50.6927 10.3125 52.0417 10.6927 53 11.4531C53.9583 12.2135 54.4375 13.2812 54.4375 14.6562V20.8906C54.4375 22.099 54.4896 22.974 54.5938 23.5156C54.7083 24.0469 54.7656 24.3385 54.7656 24.3906C54.7656 24.6198 54.5885 24.7865 54.2344 24.8906C53.8906 24.9844 53.5677 25.0312 53.2656 25.0312C53.0156 25.0312 52.8281 24.8906 52.7031 24.6094C52.5885 24.3281 52.474 23.9219 52.3594 23.3906L52.2969 23.0781C51.724 23.7135 51.0469 24.2188 50.2656 24.5938C49.4948 24.9688 48.6146 25.1562 47.625 25.1562ZM47.75 23.1406C48.6667 23.1406 49.4479 22.974 50.0938 22.6406C50.7396 22.3073 51.4062 21.8333 52.0938 21.2188V17.9375C50.7188 17.9479 49.5885 18.0052 48.7031 18.1094C47.8177 18.2135 47.0417 18.4792 46.375 18.9062C45.7083 19.3229 45.375 19.974 45.375 20.8594C45.375 21.599 45.5729 22.1667 45.9688 22.5625C46.375 22.9479 46.9688 23.1406 47.75 23.1406ZM60.1875 25.0469C59.7917 25.0469 59.5052 25 59.3281 24.9062C59.151 24.8021 59.0625 24.6458 59.0625 24.4375V14.6875C59.0625 13.4792 59.0052 12.6094 58.8906 12.0781C58.776 11.5365 58.7188 11.2396 58.7188 11.1875C58.7188 10.9583 58.8906 10.7969 59.2344 10.7031C59.5885 10.599 59.9219 10.5469 60.2344 10.5469C60.4948 10.5469 60.6875 10.6875 60.8125 10.9688C60.9375 11.25 61.026 11.5365 61.0781 11.8281C61.1406 12.1198 61.1823 12.3073 61.2031 12.3906C61.7865 11.7344 62.4583 11.224 63.2188 10.8594C63.9896 10.4948 64.7656 10.3125 65.5469 10.3125C66.9635 10.3125 68.0677 10.7135 68.8594 11.5156C69.6615 12.3073 70.0625 13.401 70.0625 14.7969V24.4375C70.0625 24.6458 69.974 24.8021 69.7969 24.9062C69.6198 25 69.3385 25.0469 68.9531 25.0469H68.8281C68.4531 25.0469 68.1771 25 68 24.9062C67.8229 24.8021 67.7344 24.6458 67.7344 24.4375V15.0312C67.7344 14.1771 67.4844 13.5156 66.9844 13.0469C66.4948 12.5677 65.8021 12.3281 64.9062 12.3281C64.2812 12.3281 63.651 12.5052 63.0156 12.8594C62.3906 13.2031 61.849 13.6771 61.3906 14.2812V24.4375C61.3906 24.6458 61.3021 24.8021 61.125 24.9062C60.9479 25 60.6719 25.0469 60.2969 25.0469H60.1875ZM75.6719 25C75.3802 25 75.1667 24.9323 75.0312 24.7969C74.8958 24.6615 74.8281 24.4531 74.8281 24.1719V6.39062C74.8281 6.09896 74.8958 5.89062 75.0312 5.76562C75.1667 5.63021 75.3802 5.5625 75.6719 5.5625H85.3594C85.5573 5.5625 85.6979 5.625 85.7812 5.75C85.875 5.875 85.9219 6.08854 85.9219 6.39062V6.84375C85.9219 7.125 85.875 7.33333 85.7812 7.46875C85.6979 7.60417 85.5573 7.67188 85.3594 7.67188H77.2812V14H84.5312C84.7292 14 84.8698 14.0677 84.9531 14.2031C85.0469 14.3385 85.0938 14.5521 85.0938 14.8438V15.2656C85.0938 15.5573 85.0469 15.7708 84.9531 15.9062C84.8698 16.0312 84.7292 16.0938 84.5312 16.0938H77.2812V22.8906H85.3906C85.5885 22.8906 85.7292 22.9583 85.8125 23.0938C85.9062 23.2188 85.9531 23.4271 85.9531 23.7188V24.1719C85.9531 24.4531 85.9062 24.6615 85.8125 24.7969C85.7292 24.9323 85.5885 25 85.3906 25H75.6719ZM93.4375 25.1562C92.0208 25.1562 90.875 24.8073 90 24.1094C89.125 23.4115 88.6875 22.375 88.6875 21C88.6875 19.5521 89.1302 18.4635 90.0156 17.7344C90.901 16.9948 91.9792 16.5208 93.25 16.3125C94.5312 16.0938 96.0833 15.9688 97.9062 15.9375V14.625C97.9062 13.9271 97.6667 13.3698 97.1875 12.9531C96.7188 12.526 95.9427 12.3125 94.8594 12.3125C94.0365 12.3125 93.3125 12.4115 92.6875 12.6094C92.0729 12.7969 91.4948 13.026 90.9531 13.2969C90.724 13.4115 90.5833 13.4688 90.5312 13.4688C90.4062 13.4688 90.2656 13.3802 90.1094 13.2031C89.9635 13.0156 89.8333 12.8073 89.7188 12.5781C89.6146 12.349 89.5625 12.1823 89.5625 12.0781C89.5625 11.8385 89.8073 11.5781 90.2969 11.2969C90.7969 11.0156 91.4479 10.7812 92.25 10.5938C93.0521 10.4062 93.8906 10.3125 94.7656 10.3125C96.5052 10.3125 97.8542 10.6927 98.8125 11.4531C99.7708 12.2135 100.25 13.2812 100.25 14.6562V20.8906C100.25 22.099 100.302 22.974 100.406 23.5156C100.521 24.0469 100.578 24.3385 100.578 24.3906C100.578 24.6198 100.401 24.7865 100.047 24.8906C99.7031 24.9844 99.3802 25.0312 99.0781 25.0312C98.8281 25.0312 98.6406 24.8906 98.5156 24.6094C98.401 24.3281 98.2865 23.9219 98.1719 23.3906L98.1094 23.0781C97.5365 23.7135 96.8594 24.2188 96.0781 24.5938C95.3073 24.9688 94.4271 25.1562 93.4375 25.1562ZM93.5625 23.1406C94.4792 23.1406 95.2604 22.974 95.9062 22.6406C96.5521 22.3073 97.2188 21.8333 97.9062 21.2188V17.9375C96.5312 17.9479 95.401 18.0052 94.5156 18.1094C93.6302 18.2135 92.8542 18.4792 92.1875 18.9062C91.5208 19.3229 91.1875 19.974 91.1875 20.8594C91.1875 21.599 91.3854 22.1667 91.7812 22.5625C92.1875 22.9479 92.7812 23.1406 93.5625 23.1406ZM107.875 25.2656C107.094 25.2656 106.365 25.1667 105.688 24.9688C105.01 24.7708 104.469 24.5312 104.062 24.25C103.667 23.9583 103.469 23.7031 103.469 23.4844C103.469 23.3802 103.521 23.2135 103.625 22.9844C103.74 22.7552 103.87 22.5521 104.016 22.375C104.172 22.1875 104.312 22.0938 104.438 22.0938C104.469 22.0938 104.562 22.1458 104.719 22.25C105.135 22.5208 105.573 22.75 106.031 22.9375C106.5 23.125 107.057 23.2188 107.703 23.2188C109.516 23.2188 110.422 22.4688 110.422 20.9688C110.422 20.5417 110.333 20.1823 110.156 19.8906C109.99 19.599 109.703 19.3438 109.297 19.125C108.901 18.8958 108.354 18.6771 107.656 18.4688C106.656 18.1771 105.875 17.8438 105.312 17.4688C104.76 17.0938 104.37 16.6562 104.141 16.1562C103.911 15.6458 103.797 15.0312 103.797 14.3125C103.797 13.5417 103.99 12.849 104.375 12.2344C104.771 11.6198 105.318 11.1406 106.016 10.7969C106.724 10.4531 107.521 10.2812 108.406 10.2812C109.021 10.2812 109.609 10.3385 110.172 10.4531C110.745 10.5677 111.203 10.7188 111.547 10.9062C111.901 11.0833 112.078 11.2708 112.078 11.4688C112.078 11.6146 112.026 11.8125 111.922 12.0625C111.828 12.3021 111.708 12.5156 111.562 12.7031C111.417 12.8802 111.286 12.9688 111.172 12.9688C111.151 12.9688 111.021 12.9062 110.781 12.7812C110.542 12.6458 110.234 12.526 109.859 12.4219C109.495 12.3073 109.089 12.25 108.641 12.25C107.932 12.25 107.344 12.4115 106.875 12.7344C106.417 13.0469 106.188 13.4688 106.188 14C106.188 14.625 106.354 15.125 106.688 15.5C107.021 15.875 107.573 16.1823 108.344 16.4219C109.531 16.7865 110.438 17.151 111.062 17.5156C111.688 17.8802 112.13 18.3281 112.391 18.8594C112.661 19.3802 112.797 20.0677 112.797 20.9219C112.797 21.7344 112.578 22.474 112.141 23.1406C111.703 23.7969 111.109 24.3177 110.359 24.7031C109.609 25.0781 108.781 25.2656 107.875 25.2656ZM117.844 30.7812C117.24 30.7812 116.938 30.6302 116.938 30.3281C116.938 30.2552 116.979 30.1042 117.062 29.875L119.391 24.2188L114.531 11.25C114.521 11.2083 114.505 11.151 114.484 11.0781C114.464 10.9948 114.453 10.9323 114.453 10.8906C114.453 10.7448 114.552 10.6302 114.75 10.5469C114.948 10.4635 115.25 10.4219 115.656 10.4219H115.875C116.5 10.4219 116.87 10.5677 116.984 10.8594L119.812 18.3906C120.062 19.0469 120.359 19.9792 120.703 21.1875H120.75L121.078 20.1562C121.13 20 121.219 19.7344 121.344 19.3594C121.469 18.974 121.583 18.651 121.688 18.3906L124.453 10.8594C124.547 10.5677 124.927 10.4219 125.594 10.4219H125.688C126.417 10.4219 126.781 10.5781 126.781 10.8906C126.781 10.9635 126.755 11.0885 126.703 11.2656L119.578 30.2031C119.411 30.5885 118.974 30.7812 118.266 30.7812H117.844ZM131.141 25.0469C130.391 25.0469 130.016 24.8438 130.016 24.4375V6.10938C130.016 5.69271 130.391 5.48438 131.141 5.48438H131.359C132.099 5.48438 132.469 5.69271 132.469 6.10938V13.9688H142.531V6.10938C142.531 5.69271 142.901 5.48438 143.641 5.48438H143.859C144.599 5.48438 144.969 5.69271 144.969 6.10938V24.4375C144.969 24.6458 144.88 24.8021 144.703 24.9062C144.526 25 144.245 25.0469 143.859 25.0469H143.641C143.255 25.0469 142.974 25 142.797 24.9062C142.62 24.8021 142.531 24.6458 142.531 24.4375V16.0781H132.469V24.4375C132.469 24.8438 132.099 25.0469 131.359 25.0469H131.141ZM154.312 25.1562C152.896 25.1562 151.786 24.7604 150.984 23.9688C150.182 23.1667 149.781 22.0625 149.781 20.6562V11.0312C149.781 10.625 150.156 10.4219 150.906 10.4219H151.016C151.755 10.4219 152.125 10.625 152.125 11.0312V20.4375C152.125 21.2917 152.37 21.9583 152.859 22.4375C153.359 22.9062 154.057 23.1406 154.953 23.1406C155.578 23.1406 156.203 22.9688 156.828 22.625C157.453 22.2708 157.995 21.7917 158.453 21.1875V11.0312C158.453 10.625 158.823 10.4219 159.562 10.4219H159.672C160.422 10.4219 160.797 10.625 160.797 11.0312V20.8906C160.797 22.099 160.849 22.974 160.953 23.5156C161.057 24.0469 161.109 24.3385 161.109 24.3906C161.109 24.6198 160.938 24.7865 160.594 24.8906C160.25 24.9844 159.927 25.0312 159.625 25.0312C159.365 25.0312 159.172 24.8854 159.047 24.5938C158.922 24.2917 158.828 23.9844 158.766 23.6719C158.714 23.3594 158.677 23.1615 158.656 23.0781C158.073 23.7344 157.396 24.2448 156.625 24.6094C155.865 24.974 155.094 25.1562 154.312 25.1562ZM172.094 25.1562C170.469 25.1562 168.995 24.4635 167.672 23.0781C167.589 23.651 167.438 24.1979 167.219 24.7188C167.177 24.8438 167.094 24.9323 166.969 24.9844C166.854 25.026 166.693 25.0469 166.484 25.0469H166.375C166.083 25.0469 165.87 25 165.734 24.9062C165.609 24.8021 165.547 24.6458 165.547 24.4375V4.71875C165.547 4.3125 165.911 4.10938 166.641 4.10938H166.766C167.495 4.10938 167.859 4.3125 167.859 4.71875V11.7188C168.464 11.2604 169.078 10.9115 169.703 10.6719C170.328 10.4323 171.042 10.3125 171.844 10.3125C172.948 10.3125 173.927 10.599 174.781 11.1719C175.635 11.7448 176.297 12.5885 176.766 13.7031C177.245 14.8177 177.484 16.1562 177.484 17.7188C177.484 19.1562 177.266 20.4427 176.828 21.5781C176.391 22.7031 175.766 23.5833 174.953 24.2188C174.141 24.8438 173.188 25.1562 172.094 25.1562ZM171.625 23.1406C172.719 23.1406 173.557 22.6562 174.141 21.6875C174.734 20.7083 175.031 19.3229 175.031 17.5312C175.031 15.8646 174.719 14.5938 174.094 13.7188C173.469 12.8438 172.542 12.3906 171.312 12.3594C170.698 12.3594 170.094 12.4635 169.5 12.6719C168.906 12.8802 168.359 13.1927 167.859 13.6094V21.2188C168.432 21.8333 169.047 22.3073 169.703 22.6406C170.359 22.974 171 23.1406 171.625 23.1406Z" fill="white"/>
<mask id="mask1_47_32" style="mask-type:luminance" maskUnits="userSpaceOnUse" x="1" y="3" width="178" height="29">
<path d="M179 3H1V32H179V3Z" fill="white"/>
<path d="M11.5469 25.1562C8.5052 25.1562 6.2552 24.3542 4.79687 22.75C3.33853 21.1458 2.60938 18.651 2.60938 15.2656C2.60938 8.67188 5.60415 5.375 11.5938 5.375C12.4688 5.375 13.3177 5.46875 14.1406 5.65625C14.9635 5.83333 15.6302 6.05729 16.1406 6.32812C16.651 6.59896 16.9062 6.85938 16.9062 7.10938C16.9062 7.26562 16.849 7.47396 16.7344 7.73438C16.6302 7.99479 16.5052 8.22396 16.3594 8.42188C16.2135 8.61977 16.0833 8.71875 15.9688 8.71875C15.9167 8.71875 15.7708 8.65104 15.5312 8.51562C14.9896 8.22396 14.4219 7.97917 13.8281 7.78125C13.2344 7.58333 12.5104 7.48438 11.6562 7.48438C9.41667 7.48438 7.76562 8.10938 6.70312 9.35938C5.65104 10.599 5.12498 12.5781 5.12498 15.2969C5.12498 17.9531 5.64583 19.9115 6.6875 21.1719C7.73958 22.4219 9.35938 23.0469 11.5469 23.0469C12.4635 23.0469 13.25 22.9375 13.9062 22.7188C14.5625 22.5 15.1927 22.2292 15.7969 21.9062C16.0885 21.75 16.2656 21.6719 16.3281 21.6719C16.4427 21.6719 16.5729 21.7708 16.7188 21.9688C16.875 22.1667 17.0104 22.3906 17.125 22.6406C17.2396 22.8802 17.2969 23.0521 17.2969 23.1562C17.2969 23.4167 17.0312 23.7083 16.5 24.0312C15.9792 24.3438 15.276 24.6094 14.3906 24.8281C13.5156 25.0469 12.5677 25.1562 11.5469 25.1562ZM24.0938 25.1562C23.1667 25.1562 22.3385 24.875 21.6094 24.3125C20.8802 23.75 20.5156 22.7552 20.5156 21.3281V4.71875C20.5156 4.3125 20.8854 4.10938 21.625 4.10938H21.75C22.4792 4.10938 22.8438 4.3125 22.8438 4.71875V21.1094C22.8438 21.8698 22.9792 22.401 23.25 22.7031C23.5208 23.0052 23.8854 23.1562 24.3438 23.1562C24.6875 23.1562 24.9583 23.1354 25.1562 23.0938C25.3542 23.0521 25.4844 23.0312 25.5469 23.0312C25.7135 23.0312 25.849 23.1979 25.9531 23.5312C26.0677 23.8646 26.125 24.1302 26.125 24.3281C26.125 24.8802 25.4479 25.1562 24.0938 25.1562ZM34.8594 25.1562C32.5573 25.1562 30.8438 24.5573 29.7188 23.3594C28.6042 22.151 28.0469 20.3073 28.0469 17.8281C28.0469 15.3698 28.5938 13.5052 29.6875 12.2344C30.7812 10.9531 32.3906 10.3125 34.5156 10.3125C36.4115 10.3125 37.8385 10.9271 38.7969 12.1562C39.7656 13.3854 40.25 15.1875 40.25 17.5625C40.25 17.6667 40.1927 17.8125 40.0781 18C39.974 18.1771 39.8438 18.3385 39.6875 18.4844C39.5417 18.6198 39.4167 18.6875 39.3125 18.6875H30.5469C30.6615 20.2396 31.0573 21.375 31.7344 22.0938C32.4219 22.8021 33.4531 23.1562 34.8281 23.1562C35.599 23.1562 36.2604 23.0625 36.8125 22.875C37.375 22.6875 37.9167 22.4583 38.4375 22.1875C38.4896 22.1667 38.5677 22.1302 38.6719 22.0781C38.776 22.026 38.849 22 38.8906 22C39.0052 22 39.1354 22.0938 39.2812 22.2812C39.4375 22.4583 39.5677 22.6615 39.6719 22.8906C39.7865 23.1094 39.8438 23.2708 39.8438 23.375C39.8438 23.6042 39.6146 23.8594 39.1562 24.1406C38.6979 24.4219 38.0833 24.6615 37.3125 24.8594C36.5521 25.0573 35.7344 25.1562 34.8594 25.1562ZM37.7656 16.6875C37.7656 13.7708 36.6562 12.3125 34.4375 12.3125C32.0521 12.3125 30.7552 13.7708 30.5469 16.6875H37.7656ZM47.625 25.1562C46.2083 25.1562 45.0625 24.8073 44.1875 24.1094C43.3125 23.4115 42.875 22.375 42.875 21C42.875 19.5521 43.3177 18.4635 44.2031 17.7344C45.0885 16.9948 46.1667 16.5208 47.4375 16.3125C48.7188 16.0938 50.2708 15.9688 52.0938 15.9375V14.625C52.0938 13.9271 51.8542 13.3698 51.375 12.9531C50.9062 12.526 50.1302 12.3125 49.0469 12.3125C48.224 12.3125 47.5 12.4115 46.875 12.6094C46.2604 12.7969 45.6823 13.026 45.1406 13.2969C44.9115 13.4115 44.7708 13.4688 44.7188 13.4688C44.5938 13.4688 44.4531 13.3802 44.2969 13.2031C44.151 13.0156 44.0208 12.8073 43.9062 12.5781C43.8021 12.349 43.75 12.1823 43.75 12.0781C43.75 11.8385 43.9948 11.5781 44.4844 11.2969C44.9844 11.0156 45.6354 10.7812 46.4375 10.5938C47.2396 10.4062 48.0781 10.3125 48.9531 10.3125C50.6927 10.3125 52.0417 10.6927 53 11.4531C53.9583 12.2135 54.4375 13.2812 54.4375 14.6562V20.8906C54.4375 22.099 54.4896 22.974 54.5938 23.5156C54.7083 24.0469 54.7656 24.3385 54.7656 24.3906C54.7656 24.6198 54.5885 24.7865 54.2344 24.8906C53.8906 24.9844 53.5677 25.0312 53.2656 25.0312C53.0156 25.0312 52.8281 24.8906 52.7031 24.6094C52.5885 24.3281 52.474 23.9219 52.3594 23.3906L52.2969 23.0781C51.724 23.7135 51.0469 24.2188 50.2656 24.5938C49.4948 24.9688 48.6146 25.1562 47.625 25.1562ZM47.75 23.1406C48.6667 23.1406 49.4479 22.974 50.0938 22.6406C50.7396 22.3073 51.4062 21.8333 52.0938 21.2188V17.9375C50.7188 17.9479 49.5885 18.0052 48.7031 18.1094C47.8177 18.2135 47.0417 18.4792 46.375 18.9062C45.7083 19.3229 45.375 19.974 45.375 20.8594C45.375 21.599 45.5729 22.1667 45.9688 22.5625C46.375 22.9479 46.9688 23.1406 47.75 23.1406ZM60.1875 25.0469C59.7917 25.0469 59.5052 25 59.3281 24.9062C59.151 24.8021 59.0625 24.6458 59.0625 24.4375V14.6875C59.0625 13.4792 59.0052 12.6094 58.8906 12.0781C58.776 11.5365 58.7188 11.2396 58.7188 11.1875C58.7188 10.9583 58.8906 10.7969 59.2344 10.7031C59.5885 10.599 59.9219 10.5469 60.2344 10.5469C60.4948 10.5469 60.6875 10.6875 60.8125 10.9688C60.9375 11.25 61.026 11.5365 61.0781 11.8281C61.1406 12.1198 61.1823 12.3073 61.2031 12.3906C61.7865 11.7344 62.4583 11.224 63.2188 10.8594C63.9896 10.4948 64.7656 10.3125 65.5469 10.3125C66.9635 10.3125 68.0677 10.7135 68.8594 11.5156C69.6615 12.3073 70.0625 13.401 70.0625 14.7969V24.4375C70.0625 24.6458 69.974 24.8021 69.7969 24.9062C69.6198 25 69.3385 25.0469 68.9531 25.0469H68.8281C68.4531 25.0469 68.1771 25 68 24.9062C67.8229 24.8021 67.7344 24.6458 67.7344 24.4375V15.0312C67.7344 14.1771 67.4844 13.5156 66.9844 13.0469C66.4948 12.5677 65.8021 12.3281 64.9062 12.3281C64.2812 12.3281 63.651 12.5052 63.0156 12.8594C62.3906 13.2031 61.849 13.6771 61.3906 14.2812V24.4375C61.3906 24.6458 61.3021 24.8021 61.125 24.9062C60.9479 25 60.6719 25.0469 60.2969 25.0469H60.1875ZM75.6719 25C75.3802 25 75.1667 24.9323 75.0312 24.7969C74.8958 24.6615 74.8281 24.4531 74.8281 24.1719V6.39062C74.8281 6.09896 74.8958 5.89062 75.0312 5.76562C75.1667 5.63021 75.3802 5.5625 75.6719 5.5625H85.3594C85.5573 5.5625 85.6979 5.625 85.7812 5.75C85.875 5.875 85.9219 6.08854 85.9219 6.39062V6.84375C85.9219 7.125 85.875 7.33333 85.7812 7.46875C85.6979 7.60417 85.5573 7.67188 85.3594 7.67188H77.2812V14H84.5312C84.7292 14 84.8698 14.0677 84.9531 14.2031C85.0469 14.3385 85.0938 14.5521 85.0938 14.8438V15.2656C85.0938 15.5573 85.0469 15.7708 84.9531 15.9062C84.8698 16.0312 84.7292 16.0938 84.5312 16.0938H77.2812V22.8906H85.3906C85.5885 22.8906 85.7292 22.9583 85.8125 23.0938C85.9062 23.2188 85.9531 23.4271 85.9531 23.7188V24.1719C85.9531 24.4531 85.9062 24.6615 85.8125 24.7969C85.7292 24.9323 85.5885 25 85.3906 25H75.6719ZM93.4375 25.1562C92.0208 25.1562 90.875 24.8073 90 24.1094C89.125 23.4115 88.6875 22.375 88.6875 21C88.6875 19.5521 89.1302 18.4635 90.0156 17.7344C90.901 16.9948 91.9792 16.5208 93.25 16.3125C94.5312 16.0938 96.0833 15.9688 97.9062 15.9375V14.625C97.9062 13.9271 97.6667 13.3698 97.1875 12.9531C96.7188 12.526 95.9427 12.3125 94.8594 12.3125C94.0365 12.3125 93.3125 12.4115 92.6875 12.6094C92.0729 12.7969 91.4948 13.026 90.9531 13.2969C90.724 13.4115 90.5833 13.4688 90.5312 13.4688C90.4062 13.4688 90.2656 13.3802 90.1094 13.2031C89.9635 13.0156 89.8333 12.8073 89.7188 12.5781C89.6146 12.349 89.5625 12.1823 89.5625 12.0781C89.5625 11.8385 89.8073 11.5781 90.2969 11.2969C90.7969 11.0156 91.4479 10.7812 92.25 10.5938C93.0521 10.4062 93.8906 10.3125 94.7656 10.3125C96.5052 10.3125 97.8542 10.6927 98.8125 11.4531C99.7708 12.2135 100.25 13.2812 100.25 14.6562V20.8906C100.25 22.099 100.302 22.974 100.406 23.5156C100.521 24.0469 100.578 24.3385 100.578 24.3906C100.578 24.6198 100.401 24.7865 100.047 24.8906C99.7031 24.9844 99.3802 25.0312 99.0781 25.0312C98.8281 25.0312 98.6406 24.8906 98.5156 24.6094C98.401 24.3281 98.2865 23.9219 98.1719 23.3906L98.1094 23.0781C97.5365 23.7135 96.8594 24.2188 96.0781 24.5938C95.3073 24.9688 94.4271 25.1562 93.4375 25.1562ZM93.5625 23.1406C94.4792 23.1406 95.2604 22.974 95.9062 22.6406C96.5521 22.3073 97.2188 21.8333 97.9062 21.2188V17.9375C96.5312 17.9479 95.401 18.0052 94.5156 18.1094C93.6302 18.2135 92.8542 18.4792 92.1875 18.9062C91.5208 19.3229 91.1875 19.974 91.1875 20.8594C91.1875 21.599 91.3854 22.1667 91.7812 22.5625C92.1875 22.9479 92.7812 23.1406 93.5625 23.1406ZM107.875 25.2656C107.094 25.2656 106.365 25.1667 105.688 24.9688C105.01 24.7708 104.469 24.5312 104.062 24.25C103.667 23.9583 103.469 23.7031 103.469 23.4844C103.469 23.3802 103.521 23.2135 103.625 22.9844C103.74 22.7552 103.87 22.5521 104.016 22.375C104.172 22.1875 104.312 22.0938 104.438 22.0938C104.469 22.0938 104.562 22.1458 104.719 22.25C105.135 22.5208 105.573 22.75 106.031 22.9375C106.5 23.125 107.057 23.2188 107.703 23.2188C109.516 23.2188 110.422 22.4688 110.422 20.9688C110.422 20.5417 110.333 20.1823 110.156 19.8906C109.99 19.599 109.703 19.3438 109.297 19.125C108.901 18.8958 108.354 18.6771 107.656 18.4688C106.656 18.1771 105.875 17.8438 105.312 17.4688C104.76 17.0938 104.37 16.6562 104.141 16.1562C103.911 15.6458 103.797 15.0312 103.797 14.3125C103.797 13.5417 103.99 12.849 104.375 12.2344C104.771 11.6198 105.318 11.1406 106.016 10.7969C106.724 10.4531 107.521 10.2812 108.406 10.2812C109.021 10.2812 109.609 10.3385 110.172 10.4531C110.745 10.5677 111.203 10.7188 111.547 10.9062C111.901 11.0833 112.078 11.2708 112.078 11.4688C112.078 11.6146 112.026 11.8125 111.922 12.0625C111.828 12.3021 111.708 12.5156 111.562 12.7031C111.417 12.8802 111.286 12.9688 111.172 12.9688C111.151 12.9688 111.021 12.9062 110.781 12.7812C110.542 12.6458 110.234 12.526 109.859 12.4219C109.495 12.3073 109.089 12.25 108.641 12.25C107.932 12.25 107.344 12.4115 106.875 12.7344C106.417 13.0469 106.188 13.4688 106.188 14C106.188 14.625 106.354 15.125 106.688 15.5C107.021 15.875 107.573 16.1823 108.344 16.4219C109.531 16.7865 110.438 17.151 111.062 17.5156C111.688 17.8802 112.13 18.3281 112.391 18.8594C112.661 19.3802 112.797 20.0677 112.797 20.9219C112.797 21.7344 112.578 22.474 112.141 23.1406C111.703 23.7969 111.109 24.3177 110.359 24.7031C109.609 25.0781 108.781 25.2656 107.875 25.2656ZM117.844 30.7812C117.24 30.7812 116.938 30.6302 116.938 30.3281C116.938 30.2552 116.979 30.1042 117.062 29.875L119.391 24.2188L114.531 11.25C114.521 11.2083 114.505 11.151 114.484 11.0781C114.464 10.9948 114.453 10.9323 114.453 10.8906C114.453 10.7448 114.552 10.6302 114.75 10.5469C114.948 10.4635 115.25 10.4219 115.656 10.4219H115.875C116.5 10.4219 116.87 10.5677 116.984 10.8594L119.812 18.3906C120.062 19.0469 120.359 19.9792 120.703 21.1875H120.75L121.078 20.1562C121.13 20 121.219 19.7344 121.344 19.3594C121.469 18.974 121.583 18.651 121.688 18.3906L124.453 10.8594C124.547 10.5677 124.927 10.4219 125.594 10.4219H125.688C126.417 10.4219 126.781 10.5781 126.781 10.8906C126.781 10.9635 126.755 11.0885 126.703 11.2656L119.578 30.2031C119.411 30.5885 118.974 30.7812 118.266 30.7812H117.844ZM131.141 25.0469C130.391 25.0469 130.016 24.8438 130.016 24.4375V6.10938C130.016 5.69271 130.391 5.48438 131.141 5.48438H131.359C132.099 5.48438 132.469 5.69271 132.469 6.10938V13.9688H142.531V6.10938C142.531 5.69271 142.901 5.48438 143.641 5.48438H143.859C144.599 5.48438 144.969 5.69271 144.969 6.10938V24.4375C144.969 24.6458 144.88 24.8021 144.703 24.9062C144.526 25 144.245 25.0469 143.859 25.0469H143.641C143.255 25.0469 142.974 25 142.797 24.9062C142.62 24.8021 142.531 24.6458 142.531 24.4375V16.0781H132.469V24.4375C132.469 24.8438 132.099 25.0469 131.359 25.0469H131.141ZM154.312 25.1562C152.896 25.1562 151.786 24.7604 150.984 23.9688C150.182 23.1667 149.781 22.0625 149.781 20.6562V11.0312C149.781 10.625 150.156 10.4219 150.906 10.4219H151.016C151.755 10.4219 152.125 10.625 152.125 11.0312V20.4375C152.125 21.2917 152.37 21.9583 152.859 22.4375C153.359 22.9062 154.057 23.1406 154.953 23.1406C155.578 23.1406 156.203 22.9688 156.828 22.625C157.453 22.2708 157.995 21.7917 158.453 21.1875V11.0312C158.453 10.625 158.823 10.4219 159.562 10.4219H159.672C160.422 10.4219 160.797 10.625 160.797 11.0312V20.8906C160.797 22.099 160.849 22.974 160.953 23.5156C161.057 24.0469 161.109 24.3385 161.109 24.3906C161.109 24.6198 160.938 24.7865 160.594 24.8906C160.25 24.9844 159.927 25.0312 159.625 25.0312C159.365 25.0312 159.172 24.8854 159.047 24.5938C158.922 24.2917 158.828 23.9844 158.766 23.6719C158.714 23.3594 158.677 23.1615 158.656 23.0781C158.073 23.7344 157.396 24.2448 156.625 24.6094C155.865 24.974 155.094 25.1562 154.312 25.1562ZM172.094 25.1562C170.469 25.1562 168.995 24.4635 167.672 23.0781C167.589 23.651 167.438 24.1979 167.219 24.7188C167.177 24.8438 167.094 24.9323 166.969 24.9844C166.854 25.026 166.693 25.0469 166.484 25.0469H166.375C166.083 25.0469 165.87 25 165.734 24.9062C165.609 24.8021 165.547 24.6458 165.547 24.4375V4.71875C165.547 4.3125 165.911 4.10938 166.641 4.10938H166.766C167.495 4.10938 167.859 4.3125 167.859 4.71875V11.7188C168.464 11.2604 169.078 10.9115 169.703 10.6719C170.328 10.4323 171.042 10.3125 171.844 10.3125C172.948 10.3125 173.927 10.599 174.781 11.1719C175.635 11.7448 176.297 12.5885 176.766 13.7031C177.245 14.8177 177.484 16.1562 177.484 17.7188C177.484 19.1562 177.266 20.4427 176.828 21.5781C176.391 22.7031 175.766 23.5833 174.953 24.2188C174.141 24.8438 173.188 25.1562 172.094 25.1562ZM171.625 23.1406C172.719 23.1406 173.557 22.6562 174.141 21.6875C174.734 20.7083 175.031 19.3229 175.031 17.5312C175.031 15.8646 174.719 14.5938 174.094 13.7188C173.469 12.8438 172.542 12.3906 171.312 12.3594C170.698 12.3594 170.094 12.4635 169.5 12.6719C168.906 12.8802 168.359 13.1927 167.859 13.6094V21.2188C168.432 21.8333 169.047 22.3073 169.703 22.6406C170.359 22.974 171 23.1406 171.625 23.1406Z" fill="black"/>
</mask>
<g mask="url(#mask1_47_32)">
<path d="M14.1406 5.65623L13.9185 6.63133L13.9303 6.63387L14.1406 5.65623ZM16.7344 7.73438L15.8191 7.33162L15.8122 7.34719L15.8059 7.36298L16.7344 7.73438ZM15.5312 8.51562L16.0233 7.64505L16.0144 7.64001L16.0053 7.63515L15.5312 8.51562ZM6.6875 21.1719L5.91663 21.8089L5.92241 21.8158L6.6875 21.1719ZM16.7188 21.9688L15.9137 22.5619L15.9236 22.5753L15.9339 22.5884L16.7188 21.9688ZM17.125 22.6406L16.2159 23.0573L16.2193 23.0647L16.2229 23.0721L17.125 22.6406ZM16.5 24.0312L17.0145 24.8888L17.0194 24.8858L16.5 24.0312ZM14.3906 24.8281L14.1508 23.8573L14.1481 23.858L14.3906 24.8281ZM11.5469 24.1562C8.67005 24.1562 6.73912 23.3999 5.5368 22.0773L4.05693 23.4227C5.77127 25.3084 8.34035 26.1562 11.5469 26.1562V24.1562ZM5.5368 22.0773C4.31812 20.7368 3.60938 18.5362 3.60938 15.2656H1.60938C1.60938 18.7659 2.35894 21.5549 4.05693 23.4227L5.5368 22.0773ZM3.60938 15.2656C3.60938 12.1004 4.33024 9.91311 5.59567 8.52003C6.84454 7.14518 8.77918 6.37498 11.5938 6.37498V4.37498C8.4187 4.37498 5.86118 5.25324 4.11526 7.17527C2.38591 9.07907 1.60938 11.8371 1.60938 15.2656H3.60938ZM11.5938 6.37498C12.3967 6.37498 13.1711 6.46104 13.9185 6.63133L14.3628 4.68124C13.4643 4.47653 12.5408 4.37498 11.5938 4.37498V6.37498ZM13.9303 6.63387C14.7002 6.79956 15.2707 6.99857 15.6719 7.21146L16.6093 5.44476C15.9897 5.11598 15.2268 4.86708 14.351 4.67861L13.9303 6.63387ZM15.6719 7.21146C15.7725 7.26481 15.849 7.31164 15.9055 7.35087C15.9629 7.39072 15.9911 7.41677 16.0006 7.42649C16.0287 7.45515 15.9062 7.34525 15.9062 7.10937H17.9062C17.9062 6.62348 17.6562 6.25838 17.4291 6.02661C17.2002 5.79305 16.9088 5.60366 16.6093 5.44476L15.6719 7.21146ZM15.9062 7.10937C15.9062 7.07107 15.9123 7.06947 15.8991 7.11765C15.8867 7.1628 15.8625 7.23293 15.8191 7.33162L17.6497 8.1371C17.7817 7.837 17.9062 7.4754 17.9062 7.10937H15.9062ZM15.8059 7.36298C15.7289 7.55538 15.6433 7.70796 15.5543 7.82868L17.1644 9.01507C17.3672 8.73995 17.5315 8.43421 17.6629 8.10577L15.8059 7.36298ZM15.5543 7.82868C15.5126 7.8853 15.5085 7.87785 15.5473 7.84836C15.584 7.82043 15.7315 7.71875 15.9688 7.71875V9.71875C16.3206 9.71875 16.5905 9.56758 16.7574 9.44069C16.9264 9.31225 17.0603 9.15637 17.1644 9.01507L15.5543 7.82868ZM15.9688 7.71875C16.0183 7.71875 16.0595 7.72266 16.0894 7.72663C16.1198 7.73067 16.145 7.73563 16.1635 7.73979C16.1994 7.74783 16.2248 7.75613 16.2358 7.75988C16.2422 7.76207 16.2469 7.76382 16.2496 7.76486C16.2524 7.76592 16.2538 7.76653 16.2538 7.76653C16.2538 7.76654 16.2528 7.76611 16.2506 7.76515C16.2485 7.76419 16.2454 7.7628 16.2414 7.76095C16.2244 7.75306 16.1977 7.73992 16.1596 7.71982C16.122 7.70001 16.0768 7.67527 16.0233 7.64505L15.0392 9.38619C15.1684 9.4592 15.2911 9.52481 15.3992 9.57498C15.4525 9.59973 15.518 9.62812 15.5884 9.65222C15.6343 9.6679 15.783 9.71875 15.9688 9.71875V7.71875ZM16.0053 7.63515C15.4122 7.31579 14.7916 7.04833 14.1444 6.83257L13.5119 8.72993C14.0521 8.91 14.5669 9.13213 15.0572 9.3961L16.0053 7.63515ZM14.1444 6.83257C13.419 6.5908 12.5815 6.48437 11.6562 6.48437V8.48438C12.4393 8.48438 13.0497 8.57587 13.5119 8.72993L14.1444 6.83257ZM11.6562 6.48437C9.23597 6.48437 7.2562 7.16464 5.94118 8.71173L7.46506 10.007C8.27504 9.05411 9.59736 8.48438 11.6562 8.48438V6.48437ZM5.94118 8.71173C4.6618 10.2191 4.12498 12.4881 4.12498 15.2969H6.125C6.125 12.6681 6.64028 10.9787 7.46506 10.007L5.94118 8.71173ZM4.12498 15.2969C4.12498 18.0505 4.65899 20.2872 5.91663 21.8089L7.45833 20.5348C6.63264 19.5357 6.125 17.8558 6.125 15.2969H4.12498ZM5.92241 21.8158C7.2236 23.3618 9.1704 24.0469 11.5469 24.0469V22.0469C9.54834 22.0469 8.25554 21.482 7.45257 20.5279L5.92241 21.8158ZM11.5469 24.0469C12.5382 24.0469 13.4372 23.9292 14.2225 23.6674L13.59 21.7701C13.0628 21.9458 12.3888 22.0469 11.5469 22.0469V24.0469ZM14.2225 23.6674C14.9317 23.431 15.6139 23.1379 16.2683 22.7882L15.3255 21.0243C14.7716 21.3204 14.1933 21.569 13.59 21.7701L14.2225 23.6674ZM16.2683 22.7882C16.335 22.7525 16.393 22.7223 16.4414 22.6981C16.4902 22.6737 16.5266 22.6566 16.5521 22.6454C16.5801 22.633 16.5837 22.6327 16.5698 22.6373C16.5624 22.6397 16.5408 22.6465 16.5088 22.6533C16.4923 22.6569 16.4693 22.6612 16.4412 22.6648C16.4136 22.6683 16.3749 22.6719 16.3281 22.6719V20.6719C16.1472 20.6719 15.9996 20.7195 15.9497 20.7358C15.876 20.7599 15.8053 20.7888 15.7448 20.8156C15.6224 20.8696 15.4804 20.9413 15.3255 21.0243L16.2683 22.7882ZM16.3281 22.6719C16.0909 22.6719 15.9434 22.5702 15.9066 22.5423C15.8678 22.5128 15.872 22.5053 15.9137 22.5619L17.5238 21.3756C17.4197 21.2343 17.2858 21.0784 17.1168 20.9499C16.9498 20.823 16.6799 20.6719 16.3281 20.6719V22.6719ZM15.9339 22.5884C16.0366 22.7185 16.1316 22.8732 16.2159 23.0573L18.0341 22.224C17.8893 21.9081 17.7134 21.6149 17.5036 21.3491L15.9339 22.5884ZM16.2229 23.0721C16.2697 23.17 16.2942 23.2323 16.3052 23.2654C16.3105 23.2812 16.3096 23.2813 16.307 23.2686C16.3048 23.258 16.2969 23.2176 16.2969 23.1562H18.2969C18.2969 22.9456 18.244 22.7573 18.2026 22.633C18.1563 22.4942 18.0949 22.3509 18.0271 22.2092L16.2229 23.0721ZM16.2969 23.1562C16.2969 23.047 16.3255 22.9664 16.3459 22.9239C16.3648 22.8846 16.3772 22.8763 16.3583 22.897C16.3402 22.9168 16.3032 22.9527 16.2379 23.0031C16.1734 23.0528 16.0888 23.1109 15.9806 23.1767L17.0194 24.8858C17.3255 24.6997 17.614 24.4885 17.837 24.2436C18.0537 24.0057 18.2969 23.6369 18.2969 23.1562H16.2969ZM15.9855 23.1738C15.5814 23.4162 14.9829 23.6517 14.1508 23.8573L14.6305 25.7989C15.5692 25.567 16.3769 25.2714 17.0145 24.8888L15.9855 23.1738ZM14.1481 23.858C13.362 24.0545 12.4965 24.1562 11.5469 24.1562V26.1562C12.6389 26.1562 13.6692 26.0393 14.6332 25.7983L14.1481 23.858ZM25.9531 23.5312L24.9986 23.8295L25.0029 23.843L25.0074 23.8563L25.9531 23.5312ZM24.0938 24.1562C23.3861 24.1562 22.7731 23.9472 22.2202 23.5207L20.9986 25.1043C21.904 25.8028 22.9473 26.1562 24.0938 26.1562V24.1562ZM22.2202 23.5207C21.8471 23.2329 21.5156 22.6186 21.5156 21.3281H19.5156C19.5156 22.8918 19.9133 24.2671 20.9986 25.1043L22.2202 23.5207ZM21.5156 21.3281V4.71873H19.5156V21.3281H21.5156ZM21.5156 4.71873C21.5156 4.77398 21.5012 4.86978 21.4399 4.97094C21.3797 5.07013 21.3073 5.12013 21.2744 5.13818C21.2472 5.15313 21.2534 5.14326 21.3198 5.13111C21.384 5.11935 21.483 5.10937 21.625 5.10937V3.10938C21.1964 3.10938 20.7169 3.16259 20.3115 3.38524C20.0938 3.50485 19.8827 3.68182 19.7301 3.93336C19.5762 4.18686 19.5156 4.46035 19.5156 4.71873H21.5156ZM21.625 5.10937H21.75V3.10938H21.625V5.10937ZM21.75 5.10937C21.8887 5.10937 21.9846 5.11927 22.0459 5.13065C22.1092 5.14241 22.1128 5.15156 22.0836 5.13529C22.0486 5.11577 21.9764 5.06447 21.9173 4.96555C21.8572 4.86524 21.8438 4.77142 21.8438 4.71873H23.8438C23.8438 4.46291 23.7847 4.19136 23.6335 3.93871C23.4832 3.68744 23.2743 3.50921 23.057 3.38813C22.6526 3.16282 22.1747 3.10938 21.75 3.10938V5.10937ZM21.8438 4.71873V21.1094H23.8438V4.71873H21.8438ZM21.8438 21.1094C21.8438 21.9261 21.9767 22.7809 22.5054 23.3707L23.9946 22.0356C23.9978 22.0392 23.9556 21.9929 23.9143 21.8311C23.8734 21.6706 23.8438 21.4358 23.8438 21.1094H21.8438ZM22.5054 23.3707C22.9916 23.913 23.6422 24.1562 24.3438 24.1562V22.1562C24.1287 22.1562 24.05 22.0974 23.9946 22.0356L22.5054 23.3707ZM24.3438 24.1562C24.7159 24.1562 25.0658 24.1347 25.3623 24.0723L24.9502 22.1152C24.8509 22.1361 24.6591 22.1562 24.3438 22.1562V24.1562ZM25.3623 24.0723C25.4527 24.0533 25.5174 24.0412 25.5603 24.0343C25.5816 24.0309 25.5924 24.0296 25.5948 24.0294C25.6003 24.0288 25.581 24.0312 25.5469 24.0312V22.0312C25.361 22.0312 25.1249 22.0784 24.9502 22.1152L25.3623 24.0723ZM25.5469 24.0312C25.4135 24.0312 25.2877 23.9959 25.1829 23.9381C25.0843 23.8837 25.0253 23.8213 24.9973 23.7868C24.9505 23.7293 24.9637 23.7176 24.9986 23.8295L26.9076 23.233C26.8384 23.0116 26.7318 22.7499 26.5496 22.5257C26.3512 22.2816 26.0142 22.0312 25.5469 22.0312V24.0312ZM25.0074 23.8563C25.1095 24.1534 25.125 24.2953 25.125 24.3281H27.125C27.125 23.9651 27.0259 23.5758 26.8988 23.2062L25.0074 23.8563ZM25.125 24.3281C25.125 24.2435 25.1574 24.1387 25.2239 24.0575C25.2766 23.993 25.3085 23.9952 25.2397 24.0232C25.0836 24.0869 24.7327 24.1562 24.0938 24.1562V26.1562C24.809 26.1562 25.4737 26.0876 25.9947 25.8752C26.2645 25.7652 26.5502 25.5949 26.7722 25.3234C27.0079 25.0351 27.125 24.6888 27.125 24.3281H25.125ZM29.7188 23.3594L28.9837 24.0374L28.9898 24.0439L29.7188 23.3594ZM29.6875 12.2344L30.4454 12.8867L30.4481 12.8836L29.6875 12.2344ZM38.7969 12.1562L38.0082 12.7711L38.0115 12.7752L38.7969 12.1562ZM40.0781 18L39.2248 17.4785L39.2205 17.4857L39.2162 17.493L40.0781 18ZM39.6875 18.4844L40.368 19.2172L40.3698 19.2154L39.6875 18.4844ZM30.5469 18.6875V17.6875H29.4703L29.5496 18.7611L30.5469 18.6875ZM31.7344 22.0938L31.0065 22.7794L31.0116 22.7849L31.0168 22.7902L31.7344 22.0938ZM36.8125 22.875L36.4963 21.9263L36.4909 21.9281L36.8125 22.875ZM38.4375 22.1875L38.0661 21.259L38.0201 21.2774L37.9761 21.3003L38.4375 22.1875ZM39.2812 22.2812L38.4919 22.8952L38.5109 22.9196L38.5314 22.9429L39.2812 22.2812ZM39.6719 22.8906L38.7615 23.3044L38.7731 23.3299L38.786 23.3546L39.6719 22.8906ZM37.3125 24.8594L37.0638 23.8908L37.0606 23.8916L37.3125 24.8594ZM37.7656 16.6875V17.6875H38.7656V16.6875H37.7656ZM30.5469 16.6875L29.5494 16.6163L29.4729 17.6875H30.5469V16.6875ZM34.8594 24.1562C32.72 24.1562 31.318 23.6015 30.4477 22.6748L28.9898 24.0439C30.3695 25.5131 32.3946 26.1562 34.8594 26.1562V24.1562ZM30.4538 22.6814C29.5784 21.7324 29.0469 20.1804 29.0469 17.8281H27.0469C27.0469 20.4342 27.6299 22.5697 28.9837 24.0374L30.4538 22.6814ZM29.0469 17.8281C29.0469 15.5003 29.5666 13.9078 30.4454 12.8867L28.9296 11.5821C27.6209 13.1026 27.0469 15.2393 27.0469 17.8281H29.0469ZM30.4481 12.8836C31.304 11.881 32.6006 11.3125 34.5156 11.3125V9.3125C32.1807 9.3125 30.2585 10.0253 28.9269 11.5851L30.4481 12.8836ZM34.5156 11.3125C36.1774 11.3125 37.2807 11.838 38.0082 12.7711L39.5855 11.5414C38.3964 10.0162 36.6455 9.3125 34.5156 9.3125V11.3125ZM38.0115 12.7752C38.7855 13.7573 39.25 15.3015 39.25 17.5625H41.25C41.25 15.0735 40.7458 13.0135 39.5823 11.5373L38.0115 12.7752ZM39.25 17.5625C39.25 17.4985 39.2586 17.451 39.2645 17.4251C39.2706 17.3986 39.2763 17.3844 39.2763 17.3843C39.2765 17.3838 39.2734 17.3917 39.2645 17.4089C39.2558 17.4258 39.243 17.4489 39.2248 17.4785L40.9314 18.5215C41.057 18.316 41.25 17.9644 41.25 17.5625H39.25ZM39.2162 17.493C39.1627 17.5838 39.0939 17.6705 39.0052 17.7533L40.3698 19.2154C40.5936 19.0066 40.7852 18.7703 40.9401 18.507L39.2162 17.493ZM39.007 17.7516C38.9732 17.783 38.9738 17.776 39.0081 17.7574C39.041 17.7396 39.1487 17.6875 39.3125 17.6875V19.6875C39.8165 19.6875 40.1851 19.387 40.368 19.2172L39.007 17.7516ZM39.3125 17.6875H30.5469V19.6875H39.3125V17.6875ZM29.5496 18.7611C29.6719 20.418 30.1039 21.8213 31.0065 22.7794L32.4623 21.4081C32.0107 20.9287 31.651 20.0611 31.5442 18.6139L29.5496 18.7611ZM31.0168 22.7902C31.9568 23.7587 33.2913 24.1562 34.8281 24.1562V22.1562C33.615 22.1562 32.887 21.8455 32.452 21.3973L31.0168 22.7902ZM34.8281 24.1562C35.6752 24.1562 36.4512 24.0538 37.1341 23.8219L36.4909 21.9281C36.0697 22.0712 35.5227 22.1562 34.8281 22.1562V24.1562ZM37.1287 23.8237C37.7406 23.6197 38.3309 23.3701 38.8989 23.0747L37.9761 21.3003C37.5025 21.5466 37.0094 21.7553 36.4963 21.9263L37.1287 23.8237ZM38.8089 23.116C38.9016 23.0789 39.0105 23.0268 39.1191 22.9726L38.2247 21.1837C38.178 21.207 38.1409 21.225 38.1123 21.2383C38.0981 21.245 38.087 21.25 38.0787 21.2536C38.0746 21.2554 38.0715 21.2568 38.0693 21.2577C38.067 21.2587 38.066 21.2591 38.0661 21.259L38.8089 23.116ZM39.1191 22.9726C39.1512 22.9565 39.1562 22.9559 39.141 22.9613C39.1327 22.9642 39.1096 22.9722 39.0751 22.98C39.0438 22.9871 38.9782 23 38.8906 23V21C38.6954 21 38.5366 21.0534 38.4684 21.0778C38.3803 21.1092 38.2967 21.1477 38.2247 21.1837L39.1191 22.9726ZM38.8906 23C38.6692 23 38.5288 22.9099 38.4899 22.8818C38.4501 22.8532 38.4523 22.8443 38.4919 22.8952L40.0706 21.6673C39.9644 21.5307 39.8286 21.3812 39.6585 21.2588C39.4894 21.137 39.2266 21 38.8906 21V23ZM38.5314 22.9429C38.618 23.041 38.6956 23.1594 38.7615 23.3044L40.5822 22.4768C40.4398 22.1635 40.257 21.8757 40.0311 21.6196L38.5314 22.9429ZM38.786 23.3546C38.8073 23.3952 38.8236 23.4288 38.8359 23.4559C38.8482 23.4832 38.8551 23.501 38.8584 23.5102C38.8619 23.5201 38.8593 23.5148 38.8555 23.497C38.8535 23.4876 38.8506 23.4728 38.8483 23.4533C38.8459 23.4339 38.8438 23.4074 38.8438 23.375H40.8438C40.8438 23.1592 40.7887 22.9695 40.7432 22.8414C40.6936 22.7015 40.6282 22.5613 40.5577 22.4266L38.786 23.3546ZM38.8438 23.375C38.8438 23.2614 38.8729 23.1748 38.8968 23.1241C38.9193 23.0767 38.9376 23.0593 38.9278 23.0702C38.9188 23.0803 38.8932 23.1061 38.8419 23.1462C38.7913 23.1857 38.723 23.2332 38.6332 23.2883L39.6793 24.9929C39.9496 24.827 40.2112 24.6344 40.4159 24.4064C40.6156 24.184 40.8438 23.834 40.8438 23.375H38.8438ZM38.6332 23.2883C38.2903 23.4988 37.7797 23.707 37.0638 23.8908L37.5612 25.828C38.387 25.6159 39.1056 25.345 39.6793 24.9929L38.6332 23.2883ZM37.0606 23.8916C36.3912 24.0659 35.6589 24.1562 34.8594 24.1562V26.1562C35.8099 26.1562 36.713 26.0487 37.5644 25.8271L37.0606 23.8916ZM38.7656 16.6875C38.7656 15.1308 38.4745 13.7802 37.7295 12.8008C36.9451 11.7698 35.7856 11.3125 34.4375 11.3125V13.3125C35.3082 13.3125 35.8127 13.5844 36.1377 14.0117C36.5021 14.4906 36.7656 15.3276 36.7656 16.6875H38.7656ZM34.4375 11.3125C33.0281 11.3125 31.8081 11.7526 30.9285 12.7417C30.0765 13.6998 29.6618 15.0425 29.5494 16.6163L31.5443 16.7587C31.6403 15.4158 31.9782 14.5711 32.423 14.0708C32.8403 13.6015 33.4615 13.3125 34.4375 13.3125V11.3125ZM30.5469 17.6875H37.7656V15.6875H30.5469V17.6875ZM44.2031 17.7344L44.8388 18.5063L44.8442 18.5019L44.2031 17.7344ZM47.4375 16.3125L47.5993 17.2993L47.6058 17.2982L47.4375 16.3125ZM52.0938 15.9375L52.1109 16.9374L53.0938 16.9205V15.9375H52.0938ZM51.375 12.9531L50.7015 13.6923L50.7101 13.7001L50.7188 13.7077L51.375 12.9531ZM46.875 12.6094L47.1668 13.5659L47.1769 13.5627L46.875 12.6094ZM44.2969 13.2031L43.5075 13.8171L43.5265 13.8415L43.547 13.8647L44.2969 13.2031ZM43.9062 12.5781L42.9959 12.9919L43.0035 13.0088L43.0118 13.0253L43.9062 12.5781ZM44.4844 11.2969L43.9941 10.4253L43.9863 10.4298L44.4844 11.2969ZM54.5938 23.5156L53.6117 23.7045L53.6139 23.7155L53.6162 23.7265L54.5938 23.5156ZM54.2344 24.8906L54.4975 25.8554L54.507 25.8528L54.5165 25.85L54.2344 24.8906ZM52.7031 24.6094L51.777 24.9867L51.7829 25.0012L51.7893 25.0155L52.7031 24.6094ZM52.3594 23.3906L51.3788 23.5867L51.3803 23.5941L51.3819 23.6015L52.3594 23.3906ZM52.2969 23.0781L53.2775 22.882L52.8871 20.9302L51.5542 22.4085L52.2969 23.0781ZM50.2656 24.5938L49.8329 23.6922L49.8282 23.6945L50.2656 24.5938ZM52.0938 21.2188L52.7602 21.9643L53.0938 21.6661V21.2188H52.0938ZM52.0938 17.9375H53.0938V16.9299L52.0862 16.9375L52.0938 17.9375ZM46.375 18.9062L46.905 19.7543L46.9144 19.7483L46.375 18.9062ZM45.9688 22.5625L45.2616 23.2696L45.2709 23.2789L45.2805 23.288L45.9688 22.5625ZM47.625 24.1562C46.3736 24.1562 45.4663 23.8502 44.8111 23.3276L43.5639 24.8912C44.6587 25.7644 46.0431 26.1562 47.625 26.1562V24.1562ZM44.8111 23.3276C44.2281 22.8626 43.875 22.1474 43.875 21H41.875C41.875 22.6026 42.3969 23.9603 43.5639 24.8912L44.8111 23.3276ZM43.875 21C43.875 19.7657 44.2427 18.9973 44.8388 18.5063L43.5674 16.9624C42.3928 17.9298 41.875 19.3385 41.875 21H43.875ZM44.8442 18.5019C45.5769 17.8899 46.4839 17.4822 47.5993 17.2993L47.2757 15.3257C45.8494 15.5595 44.6002 16.0997 43.5621 16.9669L44.8442 18.5019ZM47.6058 17.2982C48.8217 17.0906 50.3202 16.9681 52.1109 16.9374L52.0766 14.9376C50.2215 14.9694 48.6158 15.0969 47.2692 15.3268L47.6058 17.2982ZM53.0938 15.9375V14.625H51.0938V15.9375H53.0938ZM53.0938 14.625C53.0938 13.6699 52.752 12.8253 52.0312 12.1985L50.7188 13.7077C50.9564 13.9143 51.0938 14.1843 51.0938 14.625H53.0938ZM52.0485 12.2139C51.303 11.5347 50.2165 11.3125 49.0469 11.3125V13.3125C50.0439 13.3125 50.5095 13.5174 50.7015 13.6923L52.0485 12.2139ZM49.0469 11.3125C48.1465 11.3125 47.317 11.4205 46.5731 11.656L47.1769 13.5627C47.683 13.4024 48.3015 13.3125 49.0469 13.3125V11.3125ZM46.5832 11.6529C45.9184 11.8557 45.288 12.1052 44.6934 12.4024L45.5878 14.1913C46.0766 13.9469 46.6024 13.738 47.1668 13.5659L46.5832 11.6529ZM44.6934 12.4024C44.6426 12.4279 44.5996 12.4486 44.5639 12.4652C44.5276 12.4821 44.5022 12.4931 44.486 12.4997C44.4781 12.5029 44.4742 12.5043 44.4738 12.5045C44.473 12.5048 44.4787 12.5027 44.4894 12.4995C44.4993 12.4965 44.5215 12.4902 44.5529 12.4842C44.5692 12.4811 44.5908 12.4774 44.6169 12.4744C44.6425 12.4715 44.6772 12.4688 44.7188 12.4688V14.4688C44.8806 14.4688 45.0118 14.4307 45.0594 14.4165C45.1262 14.3967 45.1888 14.373 45.2406 14.3519C45.3452 14.3093 45.4636 14.2534 45.5878 14.1913L44.6934 12.4024ZM44.7188 12.4688C44.8974 12.4688 45.0144 12.5322 45.0523 12.5561C45.0889 12.5791 45.0859 12.5859 45.0467 12.5415L43.547 13.8647C43.7396 14.083 44.1364 14.4688 44.7188 14.4688V12.4688ZM45.0862 12.5892C44.9838 12.4576 44.8881 12.3058 44.8007 12.1309L43.0118 13.0253C43.1536 13.3088 43.3182 13.5737 43.5075 13.8171L45.0862 12.5892ZM44.8166 12.1643C44.7749 12.0724 44.7532 12.0139 44.7435 11.983C44.7389 11.9683 44.7396 11.9678 44.7418 11.9791C44.7436 11.9888 44.75 12.0242 44.75 12.0781H42.75C42.75 12.4218 42.8936 12.7669 42.9959 12.9919L44.8166 12.1643ZM44.75 12.0781C44.75 12.1935 44.7196 12.282 44.694 12.3342C44.6703 12.3828 44.6511 12.3999 44.6622 12.388C44.6726 12.377 44.7008 12.3499 44.7567 12.3087C44.8117 12.2681 44.8857 12.2196 44.9825 12.164L43.9863 10.4298C43.6994 10.5945 43.4221 10.7872 43.205 11.0182C42.9924 11.2444 42.75 11.603 42.75 12.0781H44.75ZM44.9746 12.1685C45.3651 11.9488 45.9186 11.742 46.6651 11.5675L46.2099 9.62C45.3522 9.82049 44.6036 10.0825 43.9941 10.4253L44.9746 12.1685ZM46.6651 11.5675C47.3881 11.3985 48.15 11.3125 48.9531 11.3125V9.3125C48.0062 9.3125 47.0911 9.41401 46.2099 9.62L46.6651 11.5675ZM48.9531 11.3125C50.56 11.3125 51.6581 11.6649 52.3784 12.2365L53.6216 10.6698C52.4252 9.72049 50.8254 9.3125 48.9531 9.3125V11.3125ZM52.3784 12.2365C53.066 12.782 53.4375 13.5435 53.4375 14.6562H55.4375C55.4375 13.019 54.8507 11.6451 53.6216 10.6698L52.3784 12.2365ZM53.4375 14.6562V20.8906H55.4375V14.6562H53.4375ZM53.4375 20.8906C53.4375 22.1059 53.4883 23.0626 53.6117 23.7045L55.5758 23.3268C55.4909 22.8854 55.4375 22.0921 55.4375 20.8906H53.4375ZM53.6162 23.7265C53.6731 23.9901 53.7145 24.1888 53.7414 24.3256C53.755 24.3946 53.7636 24.4418 53.7685 24.471C53.771 24.486 53.7714 24.4901 53.771 24.4867C53.7708 24.4849 53.7698 24.4771 53.7687 24.465C53.7679 24.4557 53.7656 24.428 53.7656 24.3906H55.7656C55.7656 24.2789 55.745 24.1648 55.7413 24.1422C55.7318 24.0855 55.719 24.0168 55.7039 23.9401C55.6735 23.7852 55.629 23.5724 55.5713 23.3048L53.6162 23.7265ZM53.7656 24.3906C53.7656 24.3153 53.781 24.2287 53.8196 24.1424C53.8576 24.0575 53.9072 23.9972 53.9474 23.9593C54.0173 23.8936 54.0498 23.9026 53.9522 23.9313L54.5165 25.85C54.7731 25.7745 55.0713 25.6481 55.3182 25.4157C55.5937 25.1563 55.7656 24.7993 55.7656 24.3906H53.7656ZM53.9713 23.9259C53.6984 24.0003 53.4646 24.0312 53.2656 24.0312V26.0312C53.6708 26.0312 54.0829 25.9685 54.4975 25.8554L53.9713 23.9259ZM53.2656 24.0312C53.2979 24.0312 53.3433 24.036 53.3959 24.0529C53.4491 24.07 53.4973 24.0956 53.5375 24.1258C53.6164 24.185 53.6312 24.2353 53.6169 24.2032L51.7893 25.0155C51.9001 25.2647 52.0711 25.526 52.3375 25.7258C52.6162 25.9348 52.9396 26.0312 53.2656 26.0312V24.0312ZM53.6292 24.2321C53.5473 24.031 53.4472 23.6911 53.3369 23.1798L51.3819 23.6015C51.5007 24.1526 51.6298 24.6252 51.777 24.9867L53.6292 24.2321ZM53.34 23.1945L53.2775 22.882L51.3163 23.2742L51.3788 23.5867L53.34 23.1945ZM51.5542 22.4085C51.0696 22.9459 50.4983 23.3729 49.8329 23.6922L50.6984 25.4953C51.5955 25.0646 52.3783 24.4812 53.0396 23.7478L51.5542 22.4085ZM49.8282 23.6945C49.2132 23.9937 48.4864 24.1562 47.625 24.1562V26.1562C48.7428 26.1562 49.7764 25.9438 50.7031 25.493L49.8282 23.6945ZM47.75 24.1406C48.7855 24.1406 49.7325 23.9524 50.5524 23.5292L49.6351 21.752C49.1633 21.9955 48.5478 22.1406 47.75 22.1406V24.1406ZM50.5524 23.5292C51.2902 23.1484 52.0258 22.6209 52.7602 21.9643L51.4273 20.4732C50.7867 21.0458 50.189 21.4661 49.6351 21.752L50.5524 23.5292ZM53.0938 21.2188V17.9375H51.0938V21.2188H53.0938ZM52.0862 16.9375C50.6919 16.9481 49.5218 17.0062 48.5863 17.1162L48.82 19.1025C49.6553 19.0043 50.7456 18.9477 52.1013 18.9375L52.0862 16.9375ZM48.5863 17.1162C47.5695 17.2358 46.6451 17.5456 45.8356 18.0642L46.9144 19.7483C47.4382 19.4127 48.0659 19.1912 48.82 19.1025L48.5863 17.1162ZM45.845 18.0583C44.8447 18.6834 44.375 19.6808 44.375 20.8594H46.375C46.375 20.2671 46.572 19.9625 46.905 19.7543L45.845 18.0583ZM44.375 20.8594C44.375 21.7759 44.6239 22.6319 45.2616 23.2696L46.6759 21.8554C46.5219 21.7015 46.375 21.422 46.375 20.8594H44.375ZM45.2805 23.288C45.9353 23.9092 46.8147 24.1406 47.75 24.1406V22.1406C47.1228 22.1406 46.8147 21.9867 46.657 21.837L45.2805 23.288ZM59.3281 24.9062L58.8211 25.7682L58.8404 25.7795L58.8602 25.79L59.3281 24.9062ZM58.8906 12.0781L57.9123 12.2851L57.9131 12.289L58.8906 12.0781ZM59.2344 10.7031L59.4975 11.6679L59.507 11.6653L59.5165 11.6625L59.2344 10.7031ZM61.0781 11.8281L60.0937 12.0039L60.0967 12.0208L60.1003 12.0377L61.0781 11.8281ZM61.2031 12.3906L60.233 12.6332L60.6923 14.4705L61.9505 13.055L61.2031 12.3906ZM63.2188 10.8594L62.7912 9.95538L62.7864 9.95765L63.2188 10.8594ZM68.8594 11.5156L68.1476 12.2182L68.1569 12.2273L68.8594 11.5156ZM69.7969 24.9062L70.2648 25.79L70.2846 25.7795L70.3039 25.7682L69.7969 24.9062ZM68 24.9062L67.493 25.7682L67.5123 25.7795L67.5321 25.79L68 24.9062ZM66.9844 13.0469L66.2849 13.7615L66.2926 13.7691L66.3004 13.7764L66.9844 13.0469ZM63.0156 12.8594L63.4976 13.7356L63.5025 13.7329L63.0156 12.8594ZM61.3906 14.2812L60.5939 13.6769L60.3906 13.9449V14.2812H61.3906ZM61.125 24.9062L61.5929 25.79L61.6127 25.7795L61.632 25.7682L61.125 24.9062ZM60.1875 24.0469C60.0257 24.0469 59.9119 24.0371 59.8373 24.0248C59.7574 24.0118 59.7561 24.0014 59.796 24.0225L58.8602 25.79C59.2639 26.0037 59.7583 26.0469 60.1875 26.0469V24.0469ZM59.8351 24.0443C59.8758 24.0682 59.9448 24.1225 59.9989 24.2179C60.0526 24.3127 60.0625 24.3968 60.0625 24.4375H58.0625C58.0625 24.9941 58.3333 25.4813 58.8211 25.7682L59.8351 24.0443ZM60.0625 24.4375V14.6875H58.0625V24.4375H60.0625ZM60.0625 14.6875C60.0625 13.4728 60.0069 12.5108 59.8681 11.8673L57.9131 12.289C58.0035 12.708 58.0625 13.4855 58.0625 14.6875H60.0625ZM59.869 11.8712C59.8121 11.6022 59.7706 11.3994 59.7436 11.2597C59.73 11.1892 59.7212 11.1407 59.7163 11.1105C59.7137 11.095 59.7132 11.0903 59.7135 11.0931C59.7137 11.0946 59.7147 11.1021 59.7157 11.1138C59.7165 11.1227 59.7188 11.1503 59.7188 11.1875H57.7188C57.7188 11.298 57.739 11.4119 57.7427 11.4345C57.7521 11.4915 57.7648 11.5608 57.7798 11.6387C57.8102 11.7959 57.8546 12.0124 57.9123 12.2851L59.869 11.8712ZM59.7188 11.1875C59.7188 11.2585 59.7047 11.3438 59.6663 11.4311C59.6282 11.5177 59.577 11.5814 59.5323 11.6234C59.4536 11.6973 59.4094 11.6919 59.4975 11.6679L58.9713 9.73836C58.7156 9.80809 58.4136 9.9303 58.163 10.1657C57.8824 10.4292 57.7188 10.7879 57.7188 11.1875H59.7188ZM59.5165 11.6625C59.7952 11.5805 60.0328 11.5469 60.2344 11.5469V9.54688C59.8109 9.54688 59.3819 9.61738 58.9522 9.74376L59.5165 11.6625ZM60.2344 11.5469C60.1732 11.5469 60.0754 11.5263 59.9847 11.4601C59.9044 11.4015 59.8871 11.3489 59.8987 11.3749L61.7263 10.5626C61.6129 10.3074 61.4368 10.0438 61.1637 9.84455C60.8803 9.63779 60.556 9.54688 60.2344 9.54688V11.5469ZM59.8987 11.3749C59.9922 11.5853 60.0563 11.7946 60.0937 12.0039L62.0626 11.6523C61.9958 11.2783 61.8828 10.9147 61.7263 10.5626L59.8987 11.3749ZM60.1003 12.0377C60.1618 12.3248 60.2072 12.5301 60.233 12.6332L62.1733 12.1481C62.1574 12.0845 62.1194 11.9148 62.0559 11.6186L60.1003 12.0377ZM61.9505 13.055C62.4493 12.4938 63.0153 12.0659 63.6511 11.7611L62.7864 9.95765C61.9013 10.382 61.1236 10.9749 60.4557 11.7263L61.9505 13.055ZM63.6463 11.7634C64.2959 11.4561 64.9266 11.3125 65.5469 11.3125V9.3125C64.6046 9.3125 63.6833 9.53344 62.7912 9.95538L63.6463 11.7634ZM65.5469 11.3125C66.7687 11.3125 67.5893 11.6526 68.1476 12.2182L69.5711 10.8132C68.546 9.77457 67.1584 9.3125 65.5469 9.3125V11.3125ZM68.1569 12.2273C68.7253 12.7883 69.0625 13.6008 69.0625 14.7969H71.0625C71.0625 13.2013 70.5976 11.8263 69.5618 10.8039L68.1569 12.2273ZM69.0625 14.7969V24.4375H71.0625V14.7969H69.0625ZM69.0625 24.4375C69.0625 24.3968 69.0724 24.3127 69.1261 24.2179C69.1802 24.1225 69.2492 24.0682 69.2899 24.0443L70.3039 25.7682C70.7917 25.4813 71.0625 24.9941 71.0625 24.4375H69.0625ZM69.329 24.0225C69.3663 24.0027 69.3644 24.0127 69.2887 24.0253C69.2175 24.0372 69.1085 24.0469 68.9531 24.0469V26.0469C69.3772 26.0469 69.8635 26.0025 70.2648 25.79L69.329 24.0225ZM68.9531 24.0469H68.8281V26.0469H68.9531V24.0469ZM68.8281 24.0469C68.6792 24.0469 68.575 24.0373 68.5073 24.0258C68.4358 24.0137 68.4332 24.0041 68.4679 24.0225L67.5321 25.79C67.9308 26.0011 68.4089 26.0469 68.8281 26.0469V24.0469ZM68.507 24.0443C68.5476 24.0682 68.6167 24.1225 68.6708 24.2179C68.7245 24.3127 68.7344 24.3968 68.7344 24.4375H66.7344C66.7344 24.9941 67.0052 25.4813 67.493 25.7682L68.507 24.0443ZM68.7344 24.4375V15.0312H66.7344V24.4375H68.7344ZM68.7344 15.0312C68.7344 13.9734 68.4175 13.0197 67.6683 12.3173L66.3004 13.7764C66.5512 14.0115 66.7344 14.3808 66.7344 15.0312H68.7344ZM67.6838 12.3322C66.9552 11.6191 65.9802 11.3281 64.9062 11.3281V13.3281C65.624 13.3281 66.0344 13.5163 66.2849 13.7615L67.6838 12.3322ZM64.9062 11.3281C64.0847 11.3281 63.2885 11.5625 62.5288 11.9859L63.5025 13.7329C64.0136 13.448 64.4778 13.3281 64.9062 13.3281V11.3281ZM62.5337 11.9832C61.7782 12.3987 61.1315 12.9682 60.5939 13.6769L62.1873 14.8856C62.5664 14.386 63.0031 14.0076 63.4976 13.7356L62.5337 11.9832ZM60.3906 14.2812V24.4375H62.3906V14.2812H60.3906ZM60.3906 24.4375C60.3906 24.3968 60.4005 24.3127 60.4542 24.2179C60.5083 24.1225 60.5774 24.0682 60.618 24.0443L61.632 25.7682C62.1198 25.4813 62.3906 24.9941 62.3906 24.4375H60.3906ZM60.6571 24.0225C60.6918 24.0041 60.6892 24.0137 60.6177 24.0258C60.55 24.0373 60.4458 24.0469 60.2969 24.0469V26.0469C60.7161 26.0469 61.1942 26.0011 61.5929 25.79L60.6571 24.0225ZM60.2969 24.0469H60.1875V26.0469H60.2969V24.0469ZM75.0312 5.76562L75.7095 6.50043L75.7242 6.48685L75.7384 6.47273L75.0312 5.76562ZM85.7812 5.74998L84.9492 6.30468L84.9646 6.32777L84.9813 6.34998L85.7812 5.74998ZM85.7812 7.46875L84.9591 6.89952L84.9437 6.92168L84.9296 6.94465L85.7812 7.46875ZM77.2812 7.67188V6.67187H76.2812V7.67188H77.2812ZM77.2812 14H76.2812V15H77.2812V14ZM84.9531 14.2031L84.1015 14.7272L84.1156 14.7502L84.1309 14.7723L84.9531 14.2031ZM84.9531 15.9062L84.1309 15.337L84.1259 15.3443L84.1211 15.3515L84.9531 15.9062ZM77.2812 16.0938V15.0938H76.2812V16.0938H77.2812ZM77.2812 22.8906H76.2812V23.8906H77.2812V22.8906ZM85.8125 23.0938L84.9608 23.6178L84.9849 23.657L85.0125 23.6938L85.8125 23.0938ZM85.8125 24.7969L84.9903 24.2277L84.975 24.2498L84.9608 24.2728L85.8125 24.7969ZM75.6719 24C75.5994 24 75.5798 23.9911 75.5952 23.996C75.6152 24.0023 75.675 24.0264 75.7384 24.0898L74.3241 25.504C74.7254 25.9052 75.2512 26 75.6719 26V24ZM75.7384 24.0898C75.7973 24.1487 75.8221 24.2058 75.8299 24.23C75.8362 24.2493 75.8281 24.2358 75.8281 24.1719H73.8281C73.8281 24.5945 73.9288 25.1086 74.3241 25.504L75.7384 24.0898ZM75.8281 24.1719V6.39062H73.8281V24.1719H75.8281ZM75.8281 6.39062C75.8281 6.3172 75.8373 6.30218 75.8299 6.32469C75.8208 6.35267 75.7895 6.42659 75.7095 6.50043L74.353 5.0308C73.9192 5.43123 73.8281 5.97904 73.8281 6.39062H75.8281ZM75.7384 6.47273C75.675 6.5361 75.6152 6.56016 75.5952 6.56651C75.5798 6.57139 75.5994 6.56248 75.6719 6.56248V4.56248C75.2512 4.56248 74.7254 4.65728 74.3241 5.0585L75.7384 6.47273ZM75.6719 6.56248H85.3594V4.56248H75.6719V6.56248ZM85.3594 6.56248C85.3569 6.56248 85.2957 6.56254 85.2071 6.52319C85.1088 6.47947 85.0153 6.40382 84.9492 6.30468L86.6133 5.1953C86.2874 4.7064 85.7735 4.56248 85.3594 4.56248V6.56248ZM84.9813 6.34998C84.9469 6.30421 84.9283 6.26571 84.9193 6.24394C84.9103 6.22229 84.9086 6.21209 84.91 6.21829C84.9113 6.22421 84.9145 6.24106 84.9172 6.2712C84.9199 6.30109 84.9219 6.34049 84.9219 6.39062H86.9219C86.9219 6.04392 86.8797 5.54787 86.5812 5.15L84.9813 6.34998ZM84.9219 6.39062V6.84373H86.9219V6.39062H84.9219ZM84.9219 6.84373C84.9219 6.88664 84.9201 6.9203 84.9176 6.94571C84.9152 6.97124 84.9124 6.98585 84.9111 6.99141C84.9098 6.99703 84.9109 6.99044 84.9172 6.97488C84.9237 6.95912 84.9364 6.93225 84.9591 6.89952L86.6034 8.03796C86.8692 7.65405 86.9219 7.1999 86.9219 6.84373H84.9219ZM84.9296 6.94465C84.9863 6.85256 85.0739 6.7709 85.1795 6.72007C85.2757 6.67371 85.3472 6.67187 85.3594 6.67187V8.67188C85.8066 8.67188 86.3215 8.4988 86.6329 7.99284L84.9296 6.94465ZM85.3594 6.67187H77.2812V8.67188H85.3594V6.67187ZM76.2812 7.67188V14H78.2812V7.67188H76.2812ZM77.2812 15H84.5312V13H77.2812V15ZM84.5312 15C84.5191 15 84.4476 14.9981 84.3513 14.9518C84.2458 14.901 84.1581 14.8193 84.1015 14.7272L85.8048 13.679C85.4934 13.1731 84.9785 13 84.5312 13V15ZM84.1309 14.7723C84.1066 14.7373 84.0935 14.7088 84.0871 14.6931C84.0809 14.6776 84.0802 14.6718 84.0818 14.6793C84.0835 14.6866 84.0866 14.7036 84.0892 14.732C84.0919 14.7603 84.0938 14.7972 84.0938 14.8438H86.0938C86.0938 14.4864 86.0441 14.0222 85.7753 13.6339L84.1309 14.7723ZM84.0938 14.8438V15.2656H86.0938V14.8438H84.0938ZM84.0938 15.2656C84.0938 15.3121 84.0919 15.349 84.0892 15.3773C84.0866 15.4058 84.0835 15.4228 84.0818 15.4301C84.0802 15.4376 84.0809 15.4318 84.0871 15.4163C84.0935 15.4006 84.1066 15.3721 84.1309 15.337L85.7753 16.4755C86.0441 16.0872 86.0938 15.623 86.0938 15.2656H84.0938ZM84.1211 15.3515C84.1872 15.2524 84.2807 15.1768 84.379 15.1331C84.4676 15.0937 84.5287 15.0938 84.5312 15.0938V17.0938C84.9454 17.0938 85.4592 16.9498 85.7852 16.461L84.1211 15.3515ZM84.5312 15.0938H77.2812V17.0938H84.5312V15.0938ZM76.2812 16.0938V22.8906H78.2812V16.0938H76.2812ZM77.2812 23.8906H85.3906V21.8906H77.2812V23.8906ZM85.3906 23.8906C85.3784 23.8906 85.307 23.8888 85.2107 23.8424C85.1051 23.7916 85.0175 23.7099 84.9608 23.6178L86.6642 22.5697C86.3528 22.0637 85.8379 21.8906 85.3906 21.8906V23.8906ZM85.0125 23.6938C84.9801 23.6505 84.9619 23.6138 84.9527 23.5918C84.9435 23.5701 84.9414 23.559 84.9424 23.5633C84.9433 23.5673 84.9461 23.5817 84.9487 23.609C84.9512 23.636 84.9531 23.6722 84.9531 23.7188H86.9531C86.9531 23.3729 86.9079 22.8876 86.6125 22.4937L85.0125 23.6938ZM84.9531 23.7188V24.1719H86.9531V23.7188H84.9531ZM84.9531 24.1719C84.9531 24.2148 84.9513 24.2484 84.9489 24.2738C84.9464 24.2994 84.9436 24.314 84.9424 24.3196C84.9411 24.3252 84.9421 24.3186 84.9485 24.303C84.9549 24.2872 84.9676 24.2604 84.9903 24.2277L86.6347 25.3661C86.9005 24.9822 86.9531 24.528 86.9531 24.1719H84.9531ZM84.9608 24.2728C85.0175 24.1807 85.1051 24.099 85.2107 24.0482C85.307 24.0019 85.3784 24 85.3906 24V26C85.8379 26 86.3528 25.8269 86.6642 25.321L84.9608 24.2728ZM85.3906 24H75.6719V26H85.3906V24ZM90.0156 17.7344L90.6513 18.5063L90.6567 18.5019L90.0156 17.7344ZM93.25 16.3125L93.4118 17.2993L93.4183 17.2982L93.25 16.3125ZM97.9062 15.9375L97.9234 16.9374L98.9062 16.9205V15.9375H97.9062ZM97.1875 12.9531L96.514 13.6923L96.5226 13.7001L96.5313 13.7077L97.1875 12.9531ZM92.6875 12.6094L92.9793 13.5659L92.9894 13.5627L92.6875 12.6094ZM90.1094 13.2031L89.32 13.8171L89.339 13.8415L89.3595 13.8647L90.1094 13.2031ZM89.7188 12.5781L88.8084 12.9919L88.816 13.0088L88.8243 13.0253L89.7188 12.5781ZM90.2969 11.2969L89.8066 10.4253L89.7988 10.4298L90.2969 11.2969ZM100.406 23.5156L99.4242 23.7045L99.4264 23.7155L99.4287 23.7265L100.406 23.5156ZM100.047 24.8906L100.31 25.8554L100.32 25.8528L100.329 25.85L100.047 24.8906ZM98.5156 24.6094L97.5895 24.9867L97.5954 25.0012L97.6018 25.0155L98.5156 24.6094ZM98.1719 23.3906L97.1913 23.5867L97.1928 23.5941L97.1944 23.6015L98.1719 23.3906ZM98.1094 23.0781L99.09 22.882L98.6996 20.9302L97.3667 22.4085L98.1094 23.0781ZM96.0781 24.5938L95.6454 23.6922L95.6407 23.6945L96.0781 24.5938ZM97.9062 21.2188L98.5727 21.9643L98.9062 21.6661V21.2188H97.9062ZM97.9062 17.9375H98.9062V16.9299L97.8987 16.9375L97.9062 17.9375ZM92.1875 18.9062L92.7175 19.7543L92.7269 19.7483L92.1875 18.9062ZM91.7812 22.5625L91.0741 23.2696L91.0834 23.2789L91.093 23.288L91.7812 22.5625ZM93.4375 24.1562C92.1861 24.1562 91.2788 23.8502 90.6236 23.3276L89.3764 24.8912C90.4712 25.7644 91.8556 26.1562 93.4375 26.1562V24.1562ZM90.6236 23.3276C90.0406 22.8626 89.6875 22.1474 89.6875 21H87.6875C87.6875 22.6026 88.2094 23.9603 89.3764 24.8912L90.6236 23.3276ZM89.6875 21C89.6875 19.7657 90.0552 18.9973 90.6513 18.5063L89.3799 16.9624C88.2053 17.9298 87.6875 19.3385 87.6875 21H89.6875ZM90.6567 18.5019C91.3894 17.8899 92.2964 17.4822 93.4118 17.2993L93.0882 15.3257C91.6619 15.5595 90.4127 16.0997 89.3746 16.9669L90.6567 18.5019ZM93.4183 17.2982C94.6342 17.0906 96.1327 16.9681 97.9234 16.9374L97.8891 14.9376C96.034 14.9694 94.4283 15.0969 93.0817 15.3268L93.4183 17.2982ZM98.9062 15.9375V14.625H96.9062V15.9375H98.9062ZM98.9062 14.625C98.9062 13.6699 98.5645 12.8253 97.8437 12.1985L96.5313 13.7077C96.7689 13.9143 96.9062 14.1843 96.9062 14.625H98.9062ZM97.861 12.2139C97.1155 11.5347 96.029 11.3125 94.8594 11.3125V13.3125C95.8564 13.3125 96.322 13.5174 96.514 13.6923L97.861 12.2139ZM94.8594 11.3125C93.959 11.3125 93.1295 11.4205 92.3856 11.656L92.9894 13.5627C93.4955 13.4024 94.114 13.3125 94.8594 13.3125V11.3125ZM92.3957 11.6529C91.7309 11.8557 91.1005 12.1052 90.5059 12.4024L91.4003 14.1913C91.8891 13.9469 92.4149 13.738 92.9793 13.5659L92.3957 11.6529ZM90.5059 12.4024C90.4551 12.4279 90.4121 12.4486 90.3764 12.4652C90.3401 12.4821 90.3147 12.4931 90.2985 12.4997C90.2906 12.5029 90.2867 12.5043 90.2863 12.5045C90.2855 12.5048 90.2912 12.5027 90.3019 12.4995C90.3118 12.4965 90.334 12.4902 90.3654 12.4842C90.3817 12.4811 90.4033 12.4774 90.4294 12.4744C90.455 12.4715 90.4897 12.4688 90.5312 12.4688V14.4688C90.6931 14.4688 90.8243 14.4307 90.8719 14.4165C90.9387 14.3967 91.0013 14.373 91.0531 14.3519C91.1577 14.3093 91.2761 14.2534 91.4003 14.1913L90.5059 12.4024ZM90.5312 12.4688C90.7099 12.4688 90.8269 12.5322 90.8648 12.5561C90.9014 12.5791 90.8984 12.5859 90.8592 12.5415L89.3595 13.8647C89.5521 14.083 89.9489 14.4688 90.5312 14.4688V12.4688ZM90.8987 12.5892C90.7963 12.4576 90.7006 12.3058 90.6132 12.1309L88.8243 13.0253C88.9661 13.3088 89.1307 13.5737 89.32 13.8171L90.8987 12.5892ZM90.6291 12.1643C90.5874 12.0724 90.5657 12.0139 90.556 11.983C90.5514 11.9683 90.5521 11.9678 90.5543 11.9791C90.5561 11.9888 90.5625 12.0242 90.5625 12.0781H88.5625C88.5625 12.4218 88.7061 12.7669 88.8084 12.9919L90.6291 12.1643ZM90.5625 12.0781C90.5625 12.1935 90.5321 12.282 90.5065 12.3342C90.4828 12.3828 90.4636 12.3999 90.4747 12.388C90.4851 12.377 90.5133 12.3499 90.5692 12.3087C90.6242 12.2681 90.6982 12.2196 90.795 12.164L89.7988 10.4298C89.5119 10.5945 89.2346 10.7872 89.0175 11.0182C88.8049 11.2444 88.5625 11.603 88.5625 12.0781H90.5625ZM90.7871 12.1685C91.1776 11.9488 91.7311 11.742 92.4776 11.5675L92.0224 9.62C91.1647 9.82049 90.4161 10.0825 89.8066 10.4253L90.7871 12.1685ZM92.4776 11.5675C93.2006 11.3985 93.9625 11.3125 94.7656 11.3125V9.3125C93.8187 9.3125 92.9036 9.41401 92.0224 9.62L92.4776 11.5675ZM94.7656 11.3125C96.3725 11.3125 97.4706 11.6649 98.1909 12.2365L99.4341 10.6698C98.2377 9.72049 96.6379 9.3125 94.7656 9.3125V11.3125ZM98.1909 12.2365C98.8785 12.782 99.25 13.5435 99.25 14.6562H101.25C101.25 13.019 100.663 11.6451 99.4341 10.6698L98.1909 12.2365ZM99.25 14.6562V20.8906H101.25V14.6562H99.25ZM99.25 20.8906C99.25 22.1059 99.3008 23.0626 99.4242 23.7045L101.388 23.3268C101.303 22.8854 101.25 22.0921 101.25 20.8906H99.25ZM99.4287 23.7265C99.4856 23.9901 99.527 24.1888 99.5539 24.3256C99.5675 24.3946 99.5761 24.4418 99.581 24.471C99.5835 24.486 99.5839 24.4901 99.5835 24.4867C99.5833 24.4849 99.5823 24.4771 99.5812 24.465C99.5804 24.4557 99.5781 24.428 99.5781 24.3906H101.578C101.578 24.2789 101.558 24.1648 101.554 24.1422C101.544 24.0855 101.531 24.0168 101.516 23.9401C101.486 23.7852 101.441 23.5724 101.384 23.3048L99.4287 23.7265ZM99.5781 24.3906C99.5781 24.3153 99.5935 24.2287 99.6321 24.1424C99.6701 24.0575 99.7197 23.9972 99.7599 23.9593C99.8298 23.8936 99.8623 23.9026 99.7647 23.9313L100.329 25.85C100.586 25.7745 100.884 25.6481 101.131 25.4157C101.406 25.1563 101.578 24.7993 101.578 24.3906H99.5781ZM99.7838 23.9259C99.5109 24.0003 99.2771 24.0312 99.0781 24.0312V26.0312C99.4833 26.0312 99.8954 25.9685 100.31 25.8554L99.7838 23.9259ZM99.0781 24.0312C99.1104 24.0312 99.1558 24.036 99.2084 24.0529C99.2616 24.07 99.3098 24.0956 99.35 24.1258C99.4289 24.185 99.4437 24.2353 99.4294 24.2032L97.6018 25.0155C97.7126 25.2647 97.8836 25.526 98.15 25.7258C98.4287 25.9348 98.7521 26.0312 99.0781 26.0312V24.0312ZM99.4417 24.2321C99.3598 24.031 99.2597 23.6911 99.1494 23.1798L97.1944 23.6015C97.3132 24.1526 97.4423 24.6252 97.5895 24.9867L99.4417 24.2321ZM99.1525 23.1945L99.09 22.882L97.1288 23.2742L97.1913 23.5867L99.1525 23.1945ZM97.3667 22.4085C96.8821 22.9459 96.3108 23.3729 95.6454 23.6922L96.5109 25.4953C97.408 25.0646 98.1908 24.4812 98.8521 23.7478L97.3667 22.4085ZM95.6407 23.6945C95.0257 23.9937 94.2989 24.1562 93.4375 24.1562V26.1562C94.5553 26.1562 95.5889 25.9438 96.5156 25.493L95.6407 23.6945ZM93.5625 24.1406C94.598 24.1406 95.545 23.9524 96.3649 23.5292L95.4476 21.752C94.9758 21.9955 94.3603 22.1406 93.5625 22.1406V24.1406ZM96.3649 23.5292C97.1027 23.1484 97.8383 22.6209 98.5727 21.9643L97.2398 20.4732C96.5992 21.0458 96.0015 21.4661 95.4476 21.752L96.3649 23.5292ZM98.9062 21.2188V17.9375H96.9062V21.2188H98.9062ZM97.8987 16.9375C96.5044 16.9481 95.3343 17.0062 94.3988 17.1162L94.6325 19.1025C95.4678 19.0043 96.5581 18.9477 97.9138 18.9375L97.8987 16.9375ZM94.3988 17.1162C93.382 17.2358 92.4576 17.5456 91.6481 18.0642L92.7269 19.7483C93.2507 19.4127 93.8784 19.1912 94.6325 19.1025L94.3988 17.1162ZM91.6575 18.0583C90.6572 18.6834 90.1875 19.6808 90.1875 20.8594H92.1875C92.1875 20.2671 92.3845 19.9625 92.7175 19.7543L91.6575 18.0583ZM90.1875 20.8594C90.1875 21.7759 90.4364 22.6319 91.0741 23.2696L92.4884 21.8554C92.3344 21.7015 92.1875 21.422 92.1875 20.8594H90.1875ZM91.093 23.288C91.7478 23.9092 92.6272 24.1406 93.5625 24.1406V22.1406C92.9353 22.1406 92.6272 21.9867 92.4695 21.837L91.093 23.288ZM104.062 24.25L103.469 25.0551L103.481 25.0638L103.493 25.0722L104.062 24.25ZM103.625 22.9844L102.731 22.5372L102.722 22.5537L102.715 22.5706L103.625 22.9844ZM104.016 22.375L103.247 21.7348L103.244 21.7393L104.016 22.375ZM104.719 22.25L104.164 23.0821L104.174 23.0884L104.719 22.25ZM106.031 22.9375L105.653 23.8631L105.66 23.866L106.031 22.9375ZM110.156 19.8906L109.288 20.3868L109.295 20.3983L109.301 20.4096L110.156 19.8906ZM109.297 19.125L108.796 19.9904L108.809 19.9982L108.823 20.0055L109.297 19.125ZM107.656 18.4688L107.942 17.5105L107.936 17.5087L107.656 18.4688ZM105.312 17.4688L104.751 18.296L104.758 18.3008L105.312 17.4688ZM104.141 16.1562L103.228 16.5659L103.232 16.5729L104.141 16.1562ZM104.375 12.2344L103.534 11.6929L103.528 11.7031L104.375 12.2344ZM106.016 10.7969L105.579 9.89719L105.574 9.89979L106.016 10.7969ZM110.172 10.4531L109.972 11.433L109.976 11.4337L110.172 10.4531ZM111.547 10.9062L111.068 11.7841L111.084 11.7927L111.1 11.8007L111.547 10.9062ZM111.922 12.0625L110.999 11.6779L110.995 11.6879L110.991 11.6981L111.922 12.0625ZM111.562 12.7031L112.334 13.3388L112.343 13.3281L112.352 13.3171L111.562 12.7031ZM110.781 12.7812L110.289 13.6518L110.304 13.6601L110.319 13.6678L110.781 12.7812ZM109.859 12.4219L109.56 13.3759L109.576 13.3809L109.592 13.3854L109.859 12.4219ZM106.875 12.7344L107.438 13.5606L107.442 13.5579L106.875 12.7344ZM108.344 16.4219L108.047 17.3768L108.05 17.3778L108.344 16.4219ZM112.391 18.8594L111.493 19.2995L111.498 19.3102L111.503 19.3207L112.391 18.8594ZM112.141 23.1406L112.973 23.6953L112.977 23.6893L112.141 23.1406ZM110.359 24.7031L110.807 25.5976L110.816 25.5926L110.359 24.7031ZM107.875 24.2656C107.179 24.2656 106.545 24.1775 105.968 24.0089L105.407 25.9286C106.184 26.1558 107.009 26.2656 107.875 26.2656V24.2656ZM105.968 24.0089C105.354 23.8293 104.921 23.628 104.632 23.4278L103.493 25.0722C104.017 25.4345 104.667 25.7123 105.407 25.9286L105.968 24.0089ZM104.656 23.4449C104.58 23.3892 104.523 23.3416 104.48 23.3025C104.437 23.263 104.416 23.2376 104.407 23.227C104.399 23.2159 104.412 23.2301 104.429 23.2699C104.446 23.3118 104.469 23.3858 104.469 23.4844H102.469C102.469 23.8993 102.654 24.2299 102.827 24.4527C103.004 24.6806 103.232 24.8799 103.469 25.0551L104.656 23.4449ZM104.469 23.4844C104.469 23.5383 104.462 23.5737 104.461 23.5834C104.458 23.5947 104.458 23.5942 104.462 23.5795C104.472 23.5486 104.494 23.4901 104.535 23.3982L102.715 22.5706C102.612 22.7956 102.469 23.1407 102.469 23.4844H104.469ZM104.519 23.4316C104.604 23.262 104.695 23.1235 104.788 23.0107L103.244 21.7393C103.045 21.9807 102.875 22.2485 102.731 22.5372L104.519 23.4316ZM104.784 23.0152C104.825 22.9656 104.83 22.9717 104.793 22.9961C104.755 23.0211 104.631 23.0938 104.438 23.0938V21.0938C103.831 21.0938 103.43 21.5154 103.247 21.7348L104.784 23.0152ZM104.438 23.0938C104.372 23.0938 104.318 23.0871 104.28 23.0808C104.241 23.0742 104.208 23.0663 104.185 23.0597C104.139 23.047 104.105 23.0336 104.088 23.0266C104.055 23.0129 104.038 23.003 104.046 23.007C104.058 23.0137 104.094 23.0356 104.164 23.0821L105.273 21.4179C105.187 21.3602 105.098 21.304 105.017 21.2587C104.977 21.2366 104.921 21.2071 104.857 21.1804C104.829 21.1686 104.659 21.0938 104.438 21.0938V23.0938ZM104.174 23.0884C104.643 23.3933 105.136 23.6518 105.653 23.8631L106.41 22.012C106.01 21.8483 105.628 21.6483 105.264 21.4116L104.174 23.0884ZM105.66 23.866C106.275 24.1119 106.964 24.2188 107.703 24.2188V22.2188C107.151 22.2188 106.725 22.1381 106.403 22.009L105.66 23.866ZM107.703 24.2188C108.722 24.2188 109.673 24.0118 110.38 23.4266C111.123 22.8115 111.422 21.928 111.422 20.9688H109.422C109.422 21.5095 109.268 21.751 109.105 21.8859C108.905 22.0507 108.496 22.2188 107.703 22.2188V24.2188ZM111.422 20.9688C111.422 20.4043 111.304 19.8547 111.011 19.3716L109.301 20.4096C109.362 20.5099 109.422 20.679 109.422 20.9688H111.422ZM111.024 19.3945C110.736 18.8904 110.283 18.5201 109.771 18.2445L108.823 20.0055C109.124 20.1674 109.243 20.3075 109.288 20.3868L111.024 19.3945ZM109.798 18.2596C109.307 17.9751 108.677 17.7297 107.942 17.5105L107.37 19.427C108.032 19.6244 108.496 19.8166 108.796 19.9904L109.798 18.2596ZM107.936 17.5087C106.987 17.2319 106.312 16.9335 105.867 16.6367L104.758 18.3008C105.438 18.754 106.325 19.1223 107.376 19.4288L107.936 17.5087ZM105.874 16.6415C105.441 16.3472 105.188 16.0414 105.05 15.7396L103.232 16.5729C103.552 17.2711 104.08 17.8403 104.751 18.296L105.874 16.6415ZM105.053 15.7467C104.896 15.3962 104.797 14.9287 104.797 14.3125H102.797C102.797 15.1338 102.927 15.8956 103.228 16.5659L105.053 15.7467ZM104.797 14.3125C104.797 13.7173 104.943 13.2109 105.222 12.7657L103.528 11.7031C103.036 12.487 102.797 13.366 102.797 14.3125H104.797ZM105.216 12.7759C105.507 12.3237 105.911 11.9629 106.457 11.694L105.574 9.89979C104.724 10.3183 104.035 10.9159 103.534 11.6929L105.216 12.7759ZM106.452 11.6965C107.008 11.4266 107.653 11.2812 108.406 11.2812V9.28125C107.389 9.28125 106.44 9.47959 105.579 9.89719L106.452 11.6965ZM108.406 11.2812C108.958 11.2812 109.48 11.3327 109.972 11.433L110.371 9.47325C109.739 9.34438 109.083 9.28125 108.406 9.28125V11.2812ZM109.976 11.4337C110.493 11.5372 110.845 11.6624 111.068 11.7841L112.026 10.0284C111.561 9.77509 110.996 9.59818 110.368 9.47254L109.976 11.4337ZM111.1 11.8007C111.156 11.8289 111.192 11.851 111.213 11.8655C111.235 11.8804 111.233 11.8819 111.218 11.8663C111.203 11.8505 111.168 11.8093 111.136 11.7398C111.103 11.6665 111.078 11.5735 111.078 11.4688H113.078C113.078 11.0444 112.881 10.7144 112.672 10.4931C112.472 10.2813 112.226 10.1277 111.994 10.0118L111.1 11.8007ZM111.078 11.4688C111.078 11.429 111.084 11.4256 111.072 11.4721C111.061 11.5152 111.039 11.5826 110.999 11.6779L112.845 12.4471C112.964 12.1617 113.078 11.8158 113.078 11.4688H111.078ZM110.991 11.6981C110.929 11.8555 110.855 11.9836 110.773 12.0892L112.352 13.3171C112.561 13.0476 112.727 12.7487 112.853 12.4269L110.991 11.6981ZM110.791 12.0674C110.753 12.1129 110.753 12.1029 110.793 12.0754C110.834 12.0479 110.966 11.9688 111.172 11.9688V13.9688C111.777 13.9688 112.169 13.5401 112.334 13.3388L110.791 12.0674ZM111.172 11.9688C111.231 11.9688 111.278 11.974 111.309 11.9784C111.342 11.983 111.368 11.9884 111.388 11.9927C111.425 12.0011 111.453 12.0098 111.467 12.0146C111.484 12.0199 111.496 12.0244 111.503 12.027C111.51 12.0299 111.516 12.032 111.518 12.033C111.523 12.0349 111.523 12.0351 111.517 12.0324C111.512 12.0299 111.503 12.026 111.491 12.0204C111.441 11.9964 111.361 11.9556 111.244 11.8947L110.319 13.6678C110.441 13.7319 110.546 13.7849 110.626 13.8234C110.665 13.842 110.709 13.8628 110.753 13.881C110.774 13.8897 110.809 13.9036 110.85 13.917C110.854 13.9182 110.994 13.9688 111.172 13.9688V11.9688ZM111.273 11.9107C110.941 11.7226 110.551 11.5761 110.127 11.4584L109.592 13.3854C109.918 13.476 110.143 13.5691 110.289 13.6518L111.273 11.9107ZM110.159 11.4679C109.683 11.3181 109.173 11.25 108.641 11.25V13.25C109.004 13.25 109.307 13.2965 109.56 13.3759L110.159 11.4679ZM108.641 11.25C107.78 11.25 106.98 11.4476 106.308 11.9109L107.442 13.5579C107.707 13.3753 108.085 13.25 108.641 13.25V11.25ZM106.312 11.9081C105.595 12.3971 105.188 13.121 105.188 14H107.188C107.188 13.8165 107.239 13.6966 107.438 13.5606L106.312 11.9081ZM105.188 14C105.188 14.8074 105.407 15.5644 105.94 16.1644L107.435 14.8356C107.302 14.6856 107.188 14.4426 107.188 14H105.188ZM105.94 16.1644C106.447 16.7347 107.198 17.1129 108.047 17.3768L108.641 15.4669C107.948 15.2517 107.595 15.0153 107.435 14.8356L105.94 16.1644ZM108.05 17.3778C109.209 17.7335 110.031 18.0714 110.559 18.3794L111.566 16.6518C110.844 16.2307 109.854 15.8394 108.637 15.4659L108.05 17.3778ZM110.559 18.3794C111.052 18.667 111.337 18.9812 111.493 19.2995L113.289 18.4192C112.924 17.675 112.323 17.0934 111.566 16.6518L110.559 18.3794ZM111.503 19.3207C111.674 19.649 111.797 20.1604 111.797 20.9219H113.797C113.797 19.975 113.649 19.1114 113.278 18.398L111.503 19.3207ZM111.797 20.9219C111.797 21.5433 111.633 22.0915 111.305 22.592L112.977 23.6893C113.523 22.8564 113.797 21.9254 113.797 20.9219H111.797ZM111.309 22.5859C110.972 23.0907 110.512 23.5006 109.902 23.8137L110.816 25.5926C111.707 25.1349 112.434 24.503 112.973 23.6953L111.309 22.5859ZM109.912 23.8087C109.312 24.1088 108.639 24.2656 107.875 24.2656V26.2656C108.924 26.2656 109.907 26.0475 110.807 25.5976L109.912 23.8087ZM117.062 29.875L116.138 29.4944L116.13 29.5137L116.123 29.5333L117.062 29.875ZM119.391 24.2188L120.315 24.5994L120.465 24.2359L120.327 23.8679L119.391 24.2188ZM114.531 11.25L113.561 11.4925L113.575 11.5477L113.595 11.6009L114.531 11.25ZM114.484 11.0781L113.514 11.3207L113.518 11.3368L113.523 11.3528L114.484 11.0781ZM116.984 10.8594L117.921 10.5078L117.918 10.5008L117.915 10.4937L116.984 10.8594ZM119.812 18.3906L118.876 18.7422L118.878 18.7466L119.812 18.3906ZM120.703 21.1875L119.741 21.4611L119.948 22.1875H120.703V21.1875ZM120.75 21.1875V22.1875H121.481L121.703 21.4907L120.75 21.1875ZM121.078 20.1562L120.129 19.84L120.125 19.853L121.078 20.1562ZM121.344 19.3594L122.292 19.6756L122.295 19.6679L121.344 19.3594ZM121.688 18.3906L122.616 18.762L122.621 18.7487L122.626 18.7353L121.688 18.3906ZM124.453 10.8594L125.392 11.2041L125.399 11.1849L125.405 11.1654L124.453 10.8594ZM126.703 11.2656L127.639 11.6178L127.652 11.5832L127.662 11.5478L126.703 11.2656ZM119.578 30.2031L120.496 30.6L120.506 30.5779L120.514 30.5553L119.578 30.2031ZM117.844 29.7812C117.732 29.7812 117.657 29.7741 117.612 29.7665C117.564 29.7586 117.572 29.7539 117.611 29.7735C117.654 29.7951 117.747 29.8526 117.826 29.9717C117.91 30.097 117.938 30.2287 117.938 30.3281H115.938C115.938 30.5786 116.003 30.8424 116.162 31.0811C116.317 31.3134 116.523 31.4653 116.717 31.5624C117.077 31.7424 117.491 31.7812 117.844 31.7812V29.7812ZM117.938 30.3281C117.938 30.365 117.935 30.393 117.933 30.4091C117.931 30.4259 117.929 30.4372 117.928 30.4417C117.927 30.4498 117.927 30.4458 117.933 30.4261C117.944 30.3861 117.965 30.3184 118.002 30.2167L116.123 29.5333C116.076 29.6607 116.035 29.7832 116.005 29.8942C115.981 29.9807 115.938 30.1475 115.938 30.3281H117.938ZM117.987 30.2556L120.315 24.5994L118.466 23.8381L116.138 29.4944L117.987 30.2556ZM120.327 23.8679L115.468 10.8991L113.595 11.6009L118.454 24.5696L120.327 23.8679ZM115.501 11.0075C115.487 10.9499 115.468 10.8803 115.446 10.8034L113.523 11.3528C113.543 11.4218 113.555 11.4668 113.561 11.4925L115.501 11.0075ZM115.455 10.8356C115.448 10.8113 115.447 10.802 115.447 10.8044C115.448 10.806 115.449 10.8136 115.45 10.8263C115.451 10.8384 115.453 10.8607 115.453 10.8906H113.453C113.453 11.0614 113.49 11.2232 113.514 11.3207L115.455 10.8356ZM115.453 10.8906C115.453 11.0675 115.385 11.2322 115.284 11.3489C115.2 11.4465 115.126 11.4738 115.138 11.4685L114.362 9.62524C113.997 9.77908 113.453 10.1601 113.453 10.8906H115.453ZM115.138 11.4685C115.131 11.4716 115.164 11.4572 115.262 11.4437C115.355 11.4308 115.485 11.4219 115.656 11.4219V9.42188C115.214 9.42188 114.749 9.46243 114.362 9.62524L115.138 11.4685ZM115.656 11.4219H115.875V9.42188H115.656V11.4219ZM115.875 11.4219C115.994 11.4219 116.084 11.4289 116.151 11.4386C116.218 11.4485 116.249 11.4595 116.254 11.4615C116.259 11.4633 116.226 11.4512 116.18 11.4101C116.131 11.3655 116.084 11.3021 116.054 11.225L117.915 10.4937C117.731 10.0241 117.357 9.74664 116.988 9.60098C116.639 9.46329 116.249 9.42188 115.875 9.42188V11.4219ZM116.048 11.2109L118.876 18.7422L120.749 18.0391L117.921 10.5078L116.048 11.2109ZM118.878 18.7466C119.113 19.3627 119.4 20.2626 119.741 21.4611L121.665 20.9139C121.318 19.6957 121.012 18.7311 120.747 18.0346L118.878 18.7466ZM120.703 22.1875H120.75V20.1875H120.703V22.1875ZM121.703 21.4907L122.031 20.4595L120.125 19.853L119.797 20.8843L121.703 21.4907ZM122.027 20.4725C122.031 20.46 122.043 20.4247 122.048 20.4088C122.058 20.3775 122.049 20.4052 122.06 20.3731C122.065 20.3566 122.067 20.3521 122.073 20.3348C122.073 20.3344 122.073 20.334 122.073 20.3335C122.073 20.3331 122.073 20.3327 122.074 20.3323C122.074 20.3315 122.074 20.3306 122.074 20.3298C122.075 20.3282 122.075 20.3265 122.076 20.3248C122.079 20.3147 122.076 20.3248 122.079 20.3147C122.082 20.3079 122.084 20.301 122.086 20.2939C122.091 20.2799 122.096 20.2654 122.101 20.2506C122.114 20.2103 122.118 20.1997 122.132 20.1561C122.162 20.0655 122.171 20.0406 122.206 19.9363C122.228 19.8685 122.224 19.8823 122.247 19.8111C122.259 19.7746 122.257 19.782 122.269 19.7446C122.276 19.7257 122.274 19.7295 122.281 19.7104C122.306 19.6337 122.267 19.7525 122.292 19.6756L120.395 19.0431C120.385 19.0741 120.382 19.0821 120.372 19.1122C120.369 19.12 120.352 19.1717 120.35 19.1786C120.345 19.1943 120.312 19.2916 120.308 19.3039C120.29 19.3598 120.249 19.4814 120.235 19.5236C120.191 19.6564 120.155 19.7619 120.129 19.84L122.027 20.4725ZM122.295 19.6679C122.416 19.2952 122.523 18.9949 122.616 18.762L120.759 18.0192C120.644 18.3072 120.522 18.6527 120.393 19.0509L122.295 19.6679ZM122.626 18.7353L125.392 11.2041L123.514 10.5147L120.749 18.0459L122.626 18.7353ZM125.405 11.1654C125.373 11.2654 125.316 11.3469 125.255 11.4028C125.201 11.4534 125.16 11.4674 125.167 11.4649C125.173 11.4624 125.209 11.4503 125.285 11.4397C125.361 11.4292 125.462 11.4219 125.594 11.4219V9.42188C125.206 9.42188 124.805 9.46173 124.45 9.59758C124.077 9.74067 123.669 10.0308 123.501 10.5534L125.405 11.1654ZM125.594 11.4219H125.688V9.42188H125.594V11.4219ZM125.688 11.4219C125.836 11.4219 125.947 11.43 126.025 11.4411C126.106 11.4527 126.128 11.4643 126.114 11.4582C126.1 11.4522 126.011 11.4118 125.924 11.2995C125.825 11.1729 125.781 11.0224 125.781 10.8906H127.781C127.781 10.6026 127.692 10.3154 127.502 10.0716C127.324 9.84207 127.098 9.70408 126.902 9.61992C126.53 9.46079 126.093 9.42188 125.688 9.42188V11.4219ZM125.781 10.8906C125.781 10.8527 125.784 10.8286 125.785 10.8246C125.786 10.819 125.785 10.8219 125.783 10.8351C125.777 10.8626 125.765 10.9104 125.744 10.9835L127.662 11.5478C127.713 11.3771 127.781 11.1248 127.781 10.8906H125.781ZM125.767 10.9135L118.642 29.851L120.514 30.5553L127.639 11.6178L125.767 10.9135ZM118.66 29.8062C118.671 29.7805 118.69 29.754 118.711 29.7335C118.731 29.7147 118.74 29.7137 118.722 29.7216C118.676 29.7417 118.542 29.7812 118.266 29.7812V31.7812C119.075 31.7812 120.079 31.5633 120.496 30.6L118.66 29.8062ZM118.266 29.7812H117.844V31.7812H118.266V29.7812ZM132.469 13.9688H131.469V14.9688H132.469V13.9688ZM142.531 13.9688V14.9688H143.531V13.9688H142.531ZM144.703 24.9062L145.171 25.79L145.191 25.7795L145.21 25.7682L144.703 24.9062ZM142.797 24.9062L142.29 25.7682L142.309 25.7795L142.329 25.79L142.797 24.9062ZM142.531 16.0781H143.531V15.0781H142.531V16.0781ZM132.469 16.0781V15.0781H131.469V16.0781H132.469ZM131.141 24.0469C130.995 24.0469 130.893 24.0368 130.826 24.0247C130.757 24.0122 130.748 24.0016 130.773 24.0152C130.804 24.0318 130.876 24.0806 130.938 24.18C131 24.282 131.016 24.3797 131.016 24.4375H129.016C129.016 24.6984 129.078 24.9739 129.234 25.2282C129.389 25.48 129.602 25.6557 129.821 25.7738C130.227 25.9939 130.708 26.0469 131.141 26.0469V24.0469ZM131.016 24.4375V6.10937H129.016V24.4375H131.016ZM131.016 6.10937C131.016 6.15996 131.003 6.25191 130.943 6.35043C130.885 6.44747 130.815 6.49686 130.783 6.51478C130.756 6.52949 130.763 6.51921 130.831 6.50672C130.896 6.49461 130.997 6.48437 131.141 6.48437V4.48437C130.706 4.48437 130.221 4.53907 129.811 4.76645C129.591 4.88853 129.38 5.06816 129.228 5.32144C129.076 5.57622 129.016 5.85043 129.016 6.10937H131.016ZM131.141 6.48437H131.359V4.48437H131.141V6.48437ZM131.359 6.48437C131.5 6.48437 131.598 6.49451 131.66 6.50624C131.725 6.51833 131.729 6.52787 131.701 6.51185C131.666 6.49248 131.596 6.44186 131.539 6.34513C131.481 6.24747 131.469 6.15748 131.469 6.10937H133.469C133.469 5.5317 133.174 5.04664 132.682 4.76938C132.274 4.53935 131.79 4.48437 131.359 4.48437V6.48437ZM131.469 6.10937V13.9688H133.469V6.10937H131.469ZM132.469 14.9688H142.531V12.9688H132.469V14.9688ZM143.531 13.9688V6.10937H141.531V13.9688H143.531ZM143.531 6.10937C143.531 6.15748 143.519 6.24747 143.461 6.34513C143.404 6.44186 143.334 6.49248 143.299 6.51185C143.271 6.52787 143.275 6.51833 143.34 6.50624C143.402 6.49451 143.5 6.48437 143.641 6.48437V4.48437C143.21 4.48437 142.726 4.53935 142.318 4.76938C141.826 5.04664 141.531 5.5317 141.531 6.10937H143.531ZM143.641 6.48437H143.859V4.48437H143.641V6.48437ZM143.859 6.48437C144 6.48437 144.098 6.49451 144.16 6.50624C144.225 6.51833 144.229 6.52787 144.201 6.51185C144.166 6.49248 144.096 6.44186 144.039 6.34513C143.981 6.24747 143.969 6.15748 143.969 6.10937H145.969C145.969 5.5317 145.674 5.04664 145.182 4.76938C144.774 4.53935 144.29 4.48437 143.859 4.48437V6.48437ZM143.969 6.10937V24.4375H145.969V6.10937H143.969ZM143.969 24.4375C143.969 24.3968 143.979 24.3127 144.032 24.2179C144.086 24.1225 144.155 24.0682 144.196 24.0443L145.21 25.7682C145.698 25.4813 145.969 24.9941 145.969 24.4375H143.969ZM144.235 24.0225C144.273 24.0027 144.271 24.0127 144.195 24.0253C144.124 24.0372 144.015 24.0469 143.859 24.0469V26.0469C144.283 26.0469 144.77 26.0025 145.171 25.79L144.235 24.0225ZM143.859 24.0469H143.641V26.0469H143.859V24.0469ZM143.641 24.0469C143.485 24.0469 143.376 24.0372 143.305 24.0253C143.229 24.0127 143.227 24.0027 143.265 24.0225L142.329 25.79C142.73 26.0025 143.217 26.0469 143.641 26.0469V24.0469ZM143.304 24.0443C143.345 24.0682 143.414 24.1225 143.468 24.2179C143.521 24.3127 143.531 24.3968 143.531 24.4375H141.531C141.531 24.9941 141.802 25.4813 142.29 25.7682L143.304 24.0443ZM143.531 24.4375V16.0781H141.531V24.4375H143.531ZM142.531 15.0781H132.469V17.0781H142.531V15.0781ZM131.469 16.0781V24.4375H133.469V16.0781H131.469ZM131.469 24.4375C131.469 24.3822 131.483 24.2865 131.545 24.1853C131.605 24.0861 131.677 24.0361 131.71 24.0181C131.737 24.0031 131.731 24.013 131.665 24.0251C131.6 24.0369 131.501 24.0469 131.359 24.0469V26.0469C131.788 26.0469 132.268 25.9937 132.673 25.771C132.891 25.6514 133.102 25.4744 133.254 25.2229C133.408 24.9694 133.469 24.6959 133.469 24.4375H131.469ZM131.359 24.0469H131.141V26.0469H131.359V24.0469ZM150.984 23.9688L150.277 24.6759L150.282 24.6805L150.984 23.9688ZM152.859 22.4375L152.16 23.1522L152.168 23.1597L152.175 23.167L152.859 22.4375ZM156.828 22.625L157.31 23.5013L157.321 23.495L156.828 22.625ZM158.453 21.1875L159.25 21.7919L159.453 21.5239V21.1875H158.453ZM160.953 23.5156L159.971 23.7045L159.972 23.708L160.953 23.5156ZM160.594 24.8906L160.857 25.8554L160.87 25.8517L160.884 25.8476L160.594 24.8906ZM159.047 24.5938L158.123 24.9761L158.128 24.9877L159.047 24.5938ZM158.766 23.6719L157.779 23.8363L157.782 23.8522L157.785 23.868L158.766 23.6719ZM158.656 23.0781L159.626 22.8356L159.167 20.9983L157.909 22.4138L158.656 23.0781ZM156.625 24.6094L156.197 23.7054L156.193 23.7077L156.625 24.6094ZM154.312 24.1562C153.088 24.1562 152.257 23.8194 151.687 23.257L150.282 24.6805C151.316 25.7014 152.704 26.1562 154.312 26.1562V24.1562ZM151.691 23.2616C151.12 22.6899 150.781 21.8646 150.781 20.6562H148.781C148.781 22.2604 149.245 23.6435 150.277 24.6759L151.691 23.2616ZM150.781 20.6562V11.0312H148.781V20.6562H150.781ZM150.781 11.0312C150.781 11.0891 150.766 11.1868 150.703 11.2887C150.642 11.3882 150.569 11.4369 150.539 11.4535C150.514 11.4672 150.522 11.4566 150.592 11.444C150.659 11.4319 150.761 11.4219 150.906 11.4219V9.42188C150.474 9.42188 149.993 9.47485 149.586 9.69493C149.368 9.81309 149.155 9.98878 149 10.2406C148.843 10.4949 148.781 10.7703 148.781 11.0312H150.781ZM150.906 11.4219H151.016V9.42188H150.906V11.4219ZM151.016 11.4219C151.158 11.4219 151.257 11.4318 151.321 11.4436C151.387 11.4558 151.393 11.4657 151.366 11.4507C151.333 11.4326 151.261 11.3826 151.201 11.2834C151.139 11.1823 151.125 11.0865 151.125 11.0312H153.125C153.125 10.7729 153.064 10.4994 152.911 10.2459C152.758 9.99432 152.547 9.81734 152.329 9.69773C151.924 9.47508 151.444 9.42188 151.016 9.42188V11.4219ZM151.125 11.0312V20.4375H153.125V11.0312H151.125ZM151.125 20.4375C151.125 21.4902 151.433 22.4408 152.16 23.1522L153.559 21.7228C153.307 21.4759 153.125 21.0931 153.125 20.4375H151.125ZM152.175 23.167C152.912 23.8577 153.884 24.1406 154.953 24.1406V22.1406C154.231 22.1406 153.807 21.9548 153.543 21.708L152.175 23.167ZM154.953 24.1406C155.769 24.1406 156.559 23.9147 157.31 23.5013L156.346 21.7488C155.848 22.0229 155.387 22.1406 154.953 22.1406V24.1406ZM157.321 23.495C158.071 23.0702 158.714 22.4982 159.25 21.7919L157.656 20.5831C157.276 21.0852 156.835 21.4715 156.335 21.755L157.321 23.495ZM159.453 21.1875V11.0312H157.453V21.1875H159.453ZM159.453 11.0312C159.453 11.0865 159.439 11.1823 159.377 11.2834C159.317 11.3826 159.245 11.4326 159.212 11.4507C159.185 11.4657 159.191 11.4558 159.257 11.4436C159.321 11.4318 159.421 11.4219 159.562 11.4219V9.42188C159.134 9.42188 158.654 9.47508 158.249 9.69773C158.031 9.81734 157.82 9.99432 157.668 10.2459C157.514 10.4994 157.453 10.7729 157.453 11.0312H159.453ZM159.562 11.4219H159.672V9.42188H159.562V11.4219ZM159.672 11.4219C159.817 11.4219 159.919 11.4319 159.986 11.444C160.056 11.4566 160.065 11.4672 160.039 11.4535C160.009 11.4369 159.936 11.3882 159.875 11.2887C159.812 11.1868 159.797 11.0891 159.797 11.0312H161.797C161.797 10.7703 161.735 10.4949 161.578 10.2406C161.423 9.98878 161.21 9.81309 160.992 9.69493C160.586 9.47485 160.104 9.42188 159.672 9.42188V11.4219ZM159.797 11.0312V20.8906H161.797V11.0312H159.797ZM159.797 20.8906C159.797 22.1059 159.848 23.0626 159.971 23.7045L161.935 23.3268C161.85 22.8854 161.797 22.0921 161.797 20.8906H159.797ZM159.972 23.708C160.024 23.9718 160.061 24.1711 160.086 24.3086C160.098 24.378 160.106 24.4261 160.111 24.4564C160.113 24.4719 160.114 24.4772 160.114 24.4754C160.114 24.4743 160.113 24.4677 160.112 24.4572C160.111 24.4492 160.109 24.4243 160.109 24.3906H162.109C162.109 24.2878 162.092 24.1813 162.088 24.1568C162.08 24.1013 162.068 24.0335 162.055 23.957C162.027 23.8029 161.987 23.5907 161.934 23.3232L159.972 23.708ZM160.109 24.3906C160.109 24.3195 160.123 24.2364 160.16 24.1525C160.196 24.0695 160.244 24.009 160.284 23.9696C160.356 23.9003 160.393 23.9065 160.304 23.9336L160.884 25.8476C161.138 25.7706 161.433 25.6413 161.677 25.4054C161.947 25.1432 162.109 24.789 162.109 24.3906H160.109ZM160.331 23.9259C160.058 24.0003 159.824 24.0312 159.625 24.0312V26.0312C160.03 26.0312 160.442 25.9685 160.857 25.8554L160.331 23.9259ZM159.625 24.0312C159.654 24.0312 159.698 24.0355 159.749 24.052C159.801 24.0687 159.849 24.0942 159.889 24.1245C159.967 24.1842 159.981 24.2346 159.966 24.1998L158.128 24.9877C158.238 25.2446 158.41 25.5137 158.682 25.7193C158.966 25.9341 159.295 26.0312 159.625 26.0312V24.0312ZM159.971 24.2114C159.87 23.9679 159.796 23.7229 159.746 23.4758L157.785 23.868C157.861 24.2459 157.974 24.6155 158.123 24.9761L159.971 24.2114ZM159.752 23.5075C159.702 23.2075 159.659 22.9659 159.626 22.8356L157.686 23.3207C157.686 23.3198 157.687 23.3227 157.688 23.3305C157.69 23.338 157.692 23.3482 157.695 23.3617C157.7 23.3889 157.707 23.4247 157.716 23.4702C157.733 23.5614 157.754 23.6828 157.779 23.8363L159.752 23.5075ZM157.909 22.4138C157.412 22.9725 156.843 23.4001 156.197 23.7054L157.053 25.5134C157.949 25.0895 158.734 24.4963 159.404 23.7425L157.909 22.4138ZM156.193 23.7077C155.556 24.0128 154.932 24.1562 154.312 24.1562V26.1562C155.255 26.1562 156.173 25.9351 157.057 25.5111L156.193 23.7077ZM167.672 23.0781L168.395 22.3875L166.978 20.9032L166.682 22.9342L167.672 23.0781ZM167.219 24.7188L166.297 24.3315L166.282 24.3665L166.27 24.4025L167.219 24.7188ZM166.969 24.9844L167.31 25.9242L167.332 25.9163L167.353 25.9075L166.969 24.9844ZM165.734 24.9062L165.094 25.6745L165.128 25.703L165.165 25.7284L165.734 24.9062ZM167.859 11.7188H166.859V13.7326L168.464 12.5154L167.859 11.7188ZM176.766 13.7031L175.844 14.0908L175.847 14.0981L176.766 13.7031ZM176.828 21.5781L177.76 21.9406L177.761 21.9377L176.828 21.5781ZM174.953 24.2188L175.563 25.0114L175.569 25.0065L174.953 24.2188ZM174.141 21.6875L173.286 21.169L173.284 21.1717L174.141 21.6875ZM171.312 12.3594L171.338 11.3597L171.325 11.3594H171.312V12.3594ZM167.859 13.6094L167.219 12.8412L166.859 13.141V13.6094H167.859ZM167.859 21.2188H166.859V21.6126L167.128 21.9006L167.859 21.2188ZM172.094 24.1562C170.791 24.1562 169.566 23.6136 168.395 22.3875L166.949 23.7687C168.424 25.3134 170.147 26.1562 172.094 26.1562V24.1562ZM166.682 22.9342C166.611 23.4256 166.482 23.8905 166.297 24.3315L168.141 25.106C168.393 24.5053 168.566 23.8765 168.661 23.2221L166.682 22.9342ZM166.27 24.4025C166.291 24.3391 166.331 24.2635 166.397 24.1935C166.462 24.1242 166.531 24.0832 166.584 24.0613L167.353 25.9075C167.737 25.7477 168.031 25.4429 168.167 25.035L166.27 24.4025ZM166.627 24.0446C166.657 24.0335 166.664 24.0355 166.634 24.0395C166.605 24.0431 166.557 24.0469 166.484 24.0469V26.0469C166.739 26.0469 167.035 26.0242 167.31 25.9242L166.627 24.0446ZM166.484 24.0469H166.375V26.0469H166.484V24.0469ZM166.375 24.0469C166.328 24.0469 166.292 24.045 166.263 24.0424C166.235 24.0397 166.218 24.0366 166.211 24.035C166.203 24.0333 166.209 24.034 166.224 24.0403C166.24 24.0466 166.269 24.0598 166.304 24.0841L165.165 25.7284C165.553 25.9973 166.018 26.0469 166.375 26.0469V24.0469ZM166.375 24.138C166.444 24.196 166.494 24.269 166.522 24.3395C166.548 24.404 166.547 24.4437 166.547 24.4375H164.547C164.547 24.8528 164.68 25.3295 165.094 25.6745L166.375 24.138ZM166.547 24.4375V4.71873H164.547V24.4375H166.547ZM166.547 4.71873C166.547 4.77142 166.533 4.86524 166.473 4.96555C166.414 5.06447 166.342 5.11577 166.307 5.13529C166.278 5.15156 166.281 5.14241 166.345 5.13065C166.406 5.11927 166.502 5.10937 166.641 5.10937V3.10938C166.216 3.10938 165.738 3.16282 165.334 3.38813C165.116 3.50921 164.907 3.68744 164.757 3.93871C164.606 4.19136 164.547 4.46291 164.547 4.71873H166.547ZM166.641 5.10937H166.766V3.10938H166.641V5.10937ZM166.766 5.10937C166.904 5.10937 167 5.11927 167.062 5.13065C167.125 5.14241 167.128 5.15156 167.099 5.13529C167.064 5.11577 166.992 5.06447 166.933 4.96555C166.873 4.86524 166.859 4.77142 166.859 4.71873H168.859C168.859 4.46291 168.8 4.19136 168.649 3.93871C168.499 3.68744 168.29 3.50921 168.073 3.38813C167.668 3.16282 167.19 3.10938 166.766 3.10938V5.10937ZM166.859 4.71873V11.7188H168.859V4.71873H166.859ZM168.464 12.5154C169.002 12.1068 169.535 11.8072 170.061 11.6056L169.345 9.73812C168.621 10.0157 167.925 10.4141 167.255 10.9221L168.464 12.5154ZM170.061 11.6056C170.552 11.4176 171.14 11.3125 171.844 11.3125V9.3125C170.943 9.3125 170.105 9.447 169.345 9.73812L170.061 11.6056ZM171.844 11.3125C172.765 11.3125 173.547 11.5482 174.224 12.0024L175.338 10.3414C174.307 9.64973 173.131 9.3125 171.844 9.3125V11.3125ZM174.224 12.0024C174.889 12.4485 175.437 13.124 175.844 14.0908L177.687 13.3155C177.157 12.0531 176.381 11.0411 175.338 10.3414L174.224 12.0024ZM175.847 14.0981C176.259 15.0576 176.484 16.2546 176.484 17.7188H178.484C178.484 16.0579 178.23 14.5779 177.684 13.3082L175.847 14.0981ZM176.484 17.7188C176.484 19.0552 176.281 20.2166 175.895 21.2186L177.761 21.9377C178.25 20.6688 178.484 19.2573 178.484 17.7188H176.484ZM175.896 21.2157C175.513 22.2019 174.985 22.924 174.337 23.431L175.569 25.0065C176.546 24.2426 177.269 23.2043 177.76 21.9406L175.896 21.2157ZM174.343 23.4261C173.718 23.9073 172.983 24.1562 172.094 24.1562V26.1562C173.392 26.1562 174.563 25.7802 175.563 25.0114L174.343 23.4261ZM171.625 24.1406C173.084 24.1406 174.241 23.4601 174.997 22.2033L173.284 21.1717C172.874 21.8524 172.354 22.1406 171.625 22.1406V24.1406ZM174.996 22.206C175.723 21.0058 176.031 19.4114 176.031 17.5312H174.031C174.031 19.2345 173.745 20.4109 173.286 21.169L174.996 22.206ZM176.031 17.5312C176.031 15.7631 175.704 14.2522 174.907 13.1375L173.28 14.3C173.734 14.9353 174.031 15.9661 174.031 17.5312H176.031ZM174.907 13.1375C174.072 11.9679 172.83 11.3976 171.338 11.3597L171.287 13.3591C172.254 13.3836 172.865 13.7196 173.28 14.3L174.907 13.1375ZM171.312 11.3594C170.582 11.3594 169.866 11.4835 169.169 11.7283L169.831 13.6155C170.321 13.4436 170.813 13.3594 171.312 13.3594V11.3594ZM169.169 11.7283C168.459 11.9775 167.808 12.3507 167.219 12.8412L168.5 14.3776C168.911 14.0347 169.354 13.7829 169.831 13.6155L169.169 11.7283ZM166.859 13.6094V21.2188H168.859V13.6094H166.859ZM167.128 21.9006C167.77 22.5889 168.476 23.1389 169.25 23.5322L170.156 21.749C169.618 21.4757 169.095 21.0777 168.591 20.5369L167.128 21.9006ZM169.25 23.5322C170.022 23.9242 170.817 24.1406 171.625 24.1406V22.1406C171.183 22.1406 170.697 22.0237 170.156 21.749L169.25 23.5322Z" fill="white"/>
</g>
<path d="M199 30C205.073 30 210 24.9609 210 18.75C210 13.4063 202.541 3.38086 200.455 0.685547C200.111 0.246094 199.602 0 199.052 0H198.948C198.398 0 197.889 0.246094 197.545 0.685547C195.459 3.38086 188 13.4063 188 18.75C188 24.9609 192.927 30 199 30ZM204.5 19.6875C204.5 19.1719 204.912 18.75 205.417 18.75C205.921 18.75 206.333 19.1719 206.333 19.6875C206.333 23.3145 203.463 26.25 199.917 26.25C199.412 26.25 199 25.8281 199 25.3125C199 24.7969 199.412 24.375 199.917 24.375C202.449 24.375 204.5 22.2773 204.5 19.6875Z" fill="#0000FF"/>
</g>
</g>
<defs>
<clipPath id="clip0_47_32">
<rect width="210" height="31" fill="white"/>
</clipPath>
</defs>
</svg>
