<svg width="128" height="128" viewBox="0 0 128 128" fill="none" xmlns="http://www.w3.org/2000/svg">
<g clip-path="url(#clip0_39_11)">
<path d="M24 30C22.9395 29.9989 21.9227 29.5771 21.1728 28.8272C20.4229 28.0773 20.0011 27.0605 20 26V15.2148C18.8339 14.2665 17.8785 13.0854 17.1946 11.7469C16.5108 10.4085 16.1135 8.94213 16.0283 7.44152C16.0154 7.62683 16 7.81146 16 8V26C16.0024 28.121 16.8461 30.1544 18.3458 31.6542C19.8456 33.1539 21.879 33.9976 24 34H36.3422C36.3254 32.6572 36.4505 31.3165 36.7156 30H24ZM83.9837 4H92C93.0605 4.00113 94.0773 4.42292 94.8272 5.17282C95.5771 5.92272 95.9989 6.93948 96 8V26C95.9989 27.0605 95.5771 28.0773 94.8272 28.8272C94.0773 29.5771 93.0605 29.9989 92 30H65.5664C64.2331 31.5201 62.4414 32.5652 60.4619 32.9774C60.4711 33.313 60.4664 33.655 60.4534 34H92C94.121 33.9976 96.1544 33.1539 97.6542 31.6542C99.1539 30.1544 99.9976 28.121 100 26V8C99.9976 5.87901 99.1539 3.84559 97.6542 2.34583C96.1544 0.846061 94.121 0.00242701 92 0H82.8938C83.1984 0.509375 83.4451 1.05119 83.6293 1.61536C83.8678 2.38763 83.9873 3.19173 83.9837 4ZM24 38C23.4696 38 22.9609 38.2107 22.5858 38.5858C22.2107 38.9609 22 39.4696 22 40V48C22 48.5304 22.2107 49.0391 22.5858 49.4142C22.9609 49.7893 23.4696 50 24 50C24.5304 50 25.0391 49.7893 25.4142 49.4142C25.7893 49.0391 26 48.5304 26 48V40C26 39.4696 25.7893 38.9609 25.4142 38.5858C25.0391 38.2107 24.5304 38 24 38ZM33 47C32.4696 47 31.9609 47.2107 31.5858 47.5858C31.2107 47.9609 31 48.4696 31 49V55C31 55.5304 31.2107 56.0391 31.5858 56.4142C31.9609 56.7893 32.4696 57 33 57C33.5304 57 34.0391 56.7893 34.4142 56.4142C34.7893 56.0391 35 55.5304 35 55V49C35 48.4696 34.7893 47.9609 34.4142 47.5858C34.0391 47.2107 33.5304 47 33 47ZM24 54C23.4696 54 22.9609 54.2107 22.5858 54.5858C22.2107 54.9609 22 55.4696 22 56V60C22 60.5304 22.2107 61.0391 22.5858 61.4142C22.9609 61.7893 23.4696 62 24 62C24.5304 62 25.0391 61.7893 25.4142 61.4142C25.7893 61.0391 26 60.5304 26 60V56C26 55.4696 25.7893 54.9609 25.4142 54.5858C25.0391 54.2107 24.5304 54 24 54Z" fill="#0000FF"/>
<path d="M55.2304 38.1475C57.1159 35.0489 56.4324 31.2817 55.7694 29.1197C56.3149 29.2774 56.8801 29.3569 57.448 29.3556C58.0132 29.3538 58.5762 29.2836 59.1245 29.1463C59.8553 29.0644 60.5616 28.8338 61.1999 28.4687C61.8382 28.1036 62.395 27.6116 62.836 27.0232C64.7315 24.4783 63.9566 20.9261 63.5354 19.517C63.4735 19.3097 63.3948 19.1078 63.3002 18.9132C63.4578 18.7739 63.609 18.6303 63.7539 18.4824C63.8276 18.5991 63.9066 18.7141 63.9907 18.8273C64.4959 19.5069 65.1544 20.0575 65.9126 20.4344C66.6708 20.8113 67.5073 21.0039 68.3541 20.9965C68.5287 20.9965 68.6895 20.9884 68.8334 20.976C69.6122 20.9624 70.3791 20.7827 71.0829 20.4491C71.7868 20.1154 72.4113 19.6354 72.9148 19.0411C74.2994 17.4028 74.7151 15.0845 74.1857 11.9535C74.1255 11.6486 74.1392 11.3338 74.2255 11.0352C74.3118 10.7367 74.4684 10.4632 74.682 10.2375C75.8019 9.169 76.9997 8.18531 78.2655 7.29456C78.9684 6.8106 79.4981 6.11454 79.7771 5.30809C80.0562 4.50164 80.07 3.62707 79.8166 2.8122C79.5632 1.99732 79.0558 1.28484 78.3686 0.778882C77.6814 0.272922 76.8504 4.23398e-07 75.9971 0L25.9971 0C24.4063 0.00179979 22.8812 0.634519 21.7564 1.75935C20.6316 2.88418 19.9989 4.40925 19.9971 6V6.8894C19.9971 6.9497 19.9984 7.00996 20.0012 7.07019C20.1089 8.56204 20.6601 9.98765 21.5839 11.164C22.5077 12.3403 23.762 13.2137 25.1858 13.6721C25.2382 14.1569 25.2359 14.6462 25.179 15.1306C23.8572 18.3899 23.8776 21.0993 25.2413 23.1903C25.831 24.0612 26.6256 24.774 27.5553 25.2659C28.485 25.7577 29.5214 26.0136 30.5732 26.0109L30.6038 26.0108C31.6876 26.0642 32.7669 25.8381 33.7382 25.3542C34.7094 24.8702 35.5399 24.1447 36.1499 23.2472C36.6736 22.4428 37.0123 21.5321 37.1416 20.581C38.452 21.463 40.0011 21.9225 41.5805 21.8978C41.8585 21.8978 42.1278 21.8852 42.385 21.8636C42.4017 23.7055 42.1404 25.5392 41.61 27.3031C39.809 32.3225 39.8692 36.0986 41.7936 38.8439C42.4943 39.8202 43.4175 40.6157 44.4867 41.1645C45.5558 41.7134 46.7403 41.9997 47.9422 42C48.1009 42 48.1868 41.9946 48.1868 41.9946L48.2649 41.9901C52.2522 41.7225 54.2536 39.7528 55.2304 38.1475ZM53.4088 14.2575C53.4088 14.2575 50.4088 14.3056 50.5853 18.8325C50.5853 18.8325 49.2912 25.4782 51.5264 29.1381C51.5264 29.1381 55.1735 37.5175 47.9971 37.9991C47.9971 37.9991 47.9778 38 47.9422 38C47.3417 38 42.0771 37.743 45.4088 28.5603C45.4088 28.5603 48.5853 18.2546 43.5264 17.5804C42.8981 17.7865 42.2416 17.8936 41.5804 17.8979C40.8655 17.9485 40.1533 17.7668 39.55 17.3798C38.9467 16.9928 38.4845 16.4213 38.2324 15.7504C38.2324 15.7504 36.9843 13.2306 35.1183 13.2304C34.7248 13.2351 34.3389 13.34 33.9971 13.5351C33.4875 13.8318 33.0799 14.2759 32.8278 14.8089C32.5758 15.3419 32.4912 15.9388 32.5853 16.5209C32.5853 16.5209 34.9383 22.0109 30.5853 22.0109L30.5732 22.0109C30.3306 22.0109 26.5498 21.9207 29.0559 16.2319C29.0559 16.2319 29.9971 11.5125 27.4089 10.1641C27.4089 10.1641 24.1147 9.48993 23.9971 6.8894V6C23.9971 5.73735 24.0488 5.47728 24.1493 5.23462C24.2499 4.99197 24.3972 4.77149 24.5829 4.58577C24.7686 4.40005 24.9891 4.25273 25.2317 4.15223C25.4744 4.05172 25.7345 3.99999 25.9971 4H75.9971C74.5351 5.02507 73.1538 6.16081 71.8655 7.39722C71.1964 8.07416 70.6996 8.90192 70.417 9.81085C70.1345 10.7198 70.0743 11.6833 70.2417 12.6203C70.562 14.5145 70.6011 16.9789 68.6384 16.9789L68.5853 16.9784C68.5089 16.9913 68.4316 16.9973 68.3541 16.9965C67.6959 16.9965 65.9439 16.6002 67.2977 12.0947C67.3969 11.7387 67.4168 11.3653 67.356 11.0007C67.2952 10.6362 67.1551 10.2895 66.9457 9.98502C66.7363 9.68053 66.4626 9.42572 66.1439 9.23856C65.8253 9.05139 65.4694 8.93644 65.1015 8.9018C64.8828 8.90311 64.6657 8.94035 64.4591 9.01203C64.074 9.15704 63.7355 9.40406 63.48 9.72666C63.2245 10.0493 63.0615 10.4353 63.0085 10.8434C62.7828 12.3037 62.0966 15.0748 60.0687 16.3535C59.7912 16.5406 59.5668 16.7963 59.4175 17.0958C59.2682 17.3953 59.199 17.7284 59.2167 18.0626C59.1922 18.9539 59.358 19.8402 59.703 20.6624C59.703 20.6624 61.0559 25.1892 58.4089 25.1892C58.0997 25.2965 57.7752 25.3527 57.448 25.3556C56.3529 25.3556 54.8794 24.6287 56.2324 20.1327C56.2324 20.1327 56.7571 14.2577 53.4494 14.2572L53.4088 14.2575ZM105.447 16H104V20H105.447C106.142 20.0193 106.801 20.3131 107.279 20.8172C107.758 21.3213 108.017 21.9946 108 22.6894V36.6035C108.017 37.2984 107.758 37.9716 107.279 38.4757C106.801 38.9798 106.142 39.2737 105.447 39.293C105.378 39.293 105.309 39.2969 105.241 39.3037L67.5162 43.208C64.9537 43.2708 62.5189 44.3396 60.7382 46.1833C58.9574 48.027 57.9739 50.4974 58.0001 53.0606V72H53.0001C51.9395 72.0011 50.9228 72.4229 50.1729 73.1728C49.423 73.9227 49.0012 74.9395 49.0001 76V121C49.0022 122.856 49.7404 124.635 51.0527 125.947C52.365 127.26 54.1442 127.998 56.0001 128H64.0001C65.8559 127.998 67.6351 127.26 68.9474 125.947C70.2597 124.635 70.9979 122.856 71.0001 121V76C70.9989 74.9395 70.5771 73.9227 69.8272 73.1728C69.0773 72.4229 68.0606 72.0011 67.0001 72H62.0001V53.0606C61.9721 51.539 62.5486 50.0684 63.6031 48.9712C64.6576 47.874 66.1041 47.2395 67.6256 47.207C67.6944 47.207 67.7633 47.2031 67.8316 47.1963L105.56 43.292C107.295 43.2417 108.941 42.5131 110.145 41.2626C111.349 40.0122 112.015 38.3394 112 36.6035V22.6894C112.016 20.934 111.335 19.244 110.106 17.9899C108.878 16.7359 107.202 16.0203 105.447 16ZM67.0001 121C66.9992 121.795 66.6829 122.558 66.1204 123.12C65.558 123.683 64.7955 123.999 64.0001 124H56.0001C55.2047 123.999 54.4421 123.683 53.8797 123.12C53.3173 122.558 53.0009 121.795 53.0001 121V118H67.0001V121ZM67.0001 76V114H53.0001V76H67.0001Z" fill="#0000FF"/>
</g>
<defs>
<clipPath id="clip0_39_11">
<rect width="128" height="128" fill="white"/>
</clipPath>
</defs>
</svg>
