<svg width="64" height="64" viewBox="0 0 64 64" fill="none" xmlns="http://www.w3.org/2000/svg">
<path d="M27 52H9C8.20459 51.9992 7.44199 51.6829 6.87956 51.1204C6.31712 50.558 6.00079 49.7954 6 49V22C6.00079 21.2046 6.31712 20.442 6.87956 19.8796C7.44199 19.3171 8.20459 19.0008 9 19H27C27.7954 19.0008 28.558 19.3171 29.1204 19.8796C29.6829 20.442 29.9992 21.2046 30 22V49C29.9992 49.7954 29.6829 50.558 29.1204 51.1204C28.558 51.6829 27.7954 51.9992 27 52ZM9 21C8.73486 21.0003 8.48066 21.1057 8.29319 21.2932C8.10571 21.4807 8.00026 21.7349 8 22V49C8.00026 49.2651 8.10571 49.5193 8.29319 49.7068C8.48066 49.8943 8.73486 49.9997 9 50H27C27.2651 49.9997 27.5193 49.8943 27.7068 49.7068C27.8943 49.5193 27.9997 49.2651 28 49V22C27.9997 21.7349 27.8943 21.4807 27.7068 21.2932C27.5193 21.1057 27.2651 21.0003 27 21H9Z" fill="#0000FF"/>
<path d="M26 21H10C9.73478 21 9.48043 20.8946 9.29289 20.7071C9.10536 20.5196 9 20.2652 9 20V16C9 15.7348 9.10536 15.4804 9.29289 15.2929C9.48043 15.1054 9.73478 15 10 15H26C26.2652 15 26.5196 15.1054 26.7071 15.2929C26.8946 15.4804 27 15.7348 27 16V20C27 20.2652 26.8946 20.5196 26.7071 20.7071C26.5196 20.8946 26.2652 21 26 21ZM11 19H25V17H11V19ZM27 56H9C8.73478 56 8.48043 55.8946 8.29289 55.7071C8.10536 55.5196 8 55.2652 8 55V51C8 50.7348 8.10536 50.4804 8.29289 50.2929C8.48043 50.1054 8.73478 50 9 50H27C27.2652 50 27.5196 50.1054 27.7071 50.2929C27.8946 50.4804 28 50.7348 28 51V55C28 55.2652 27.8946 55.5196 27.7071 55.7071C27.5196 55.8946 27.2652 56 27 56ZM10 54H26V52H10V54ZM29 38C28.7348 38 28.4804 37.8946 28.2929 37.7071C28.1054 37.5196 28 37.2652 28 37V25C28 24.7348 28.1054 24.4804 28.2929 24.2929C28.4804 24.1054 28.7348 24 29 24H52.268C54.0528 24.0021 55.7639 24.7121 57.0259 25.9741C58.2879 27.2361 58.9979 28.9472 59 30.732V31.257C58.9973 31.9809 58.7341 32.6796 58.2585 33.2254C57.7829 33.7711 57.1267 34.1274 56.41 34.229L29.137 37.991C29.0916 37.9972 29.0458 38.0002 29 38ZM30 26V35.852L56.137 32.248C56.3759 32.2141 56.5947 32.0953 56.7532 31.9133C56.9116 31.7313 56.9993 31.4983 57 31.257V30.732C56.9987 29.4774 56.4997 28.2746 55.6126 27.3874C54.7254 26.5003 53.5226 26.0013 52.268 26H30Z" fill="#0000FF"/>
<path d="M46.457 40.62C45.7335 40.6183 45.035 40.3553 44.4902 39.8794C43.9453 39.4034 43.5908 38.7466 43.492 38.03L43.082 35.058C43.0458 34.7953 43.1155 34.529 43.2756 34.3176C43.4358 34.1063 43.6733 33.9672 43.936 33.931L53.842 32.564C53.9722 32.5452 54.1048 32.5525 54.2321 32.5854C54.3594 32.6183 54.479 32.6762 54.5838 32.7556C54.6886 32.835 54.7767 32.9345 54.8428 33.0482C54.9089 33.1619 54.9518 33.2876 54.969 33.418L55.379 36.389C55.433 36.7793 55.4096 37.1764 55.3101 37.5576C55.2106 37.9389 55.037 38.2968 54.7992 38.6109C54.5614 38.9251 54.264 39.1893 53.9241 39.3885C53.5841 39.5877 53.2083 39.718 52.818 39.772L46.874 40.592C46.7358 40.611 46.5965 40.6197 46.457 40.62ZM45.199 35.775L45.473 37.757C45.5097 38.0195 45.6491 38.2568 45.8606 38.4168C46.072 38.5767 46.3383 38.6462 46.601 38.61L52.544 37.79C52.8065 37.7537 53.0438 37.6148 53.2039 37.4037C53.3641 37.1925 53.4338 36.9265 53.398 36.664L53.125 34.682L45.199 35.775ZM26.67 17H9.32997C8.89736 17 8.46987 16.9064 8.07681 16.7257C7.68376 16.545 7.33443 16.2814 7.05279 15.953C6.77115 15.6247 6.56386 15.2393 6.44514 14.8233C6.32642 14.4073 6.29907 13.9705 6.36497 13.543L7.18497 8.21297C7.44327 6.47943 8.31771 4.89707 9.64801 3.75595C10.9783 2.61483 12.6753 1.99141 14.428 1.99996H49C49.7954 2.00076 50.558 2.31708 51.1204 2.87952C51.6828 3.44196 51.9992 4.20456 52 4.99996V5.99996C51.9992 6.79537 51.6828 7.55797 51.1204 8.12041C50.558 8.68285 49.7954 8.99917 49 8.99996H28.936L29.634 13.544C29.6997 13.9714 29.6723 14.4079 29.5535 14.8237C29.4348 15.2395 29.2276 15.6247 28.946 15.953C28.6645 16.2812 28.3154 16.5447 27.9225 16.7254C27.5297 16.9062 27.1024 16.9998 26.67 17ZM14.429 3.99996C13.1547 3.99374 11.9209 4.44698 10.9538 5.2766C9.98657 6.10622 9.3508 7.25663 9.16297 8.51696L8.34297 13.847C8.3209 13.9895 8.32993 14.1351 8.36944 14.2739C8.40894 14.4126 8.47799 14.5411 8.57185 14.6506C8.6657 14.7602 8.78214 14.8481 8.91317 14.9084C9.0442 14.9687 9.18673 14.9999 9.33097 15H26.67C26.8142 15.0001 26.9567 14.9689 27.0878 14.9088C27.2189 14.8486 27.3354 14.7608 27.4293 14.6514C27.5233 14.5419 27.5924 14.4135 27.6321 14.2748C27.6717 14.1361 27.6809 13.9905 27.659 13.848L26.783 8.15197C26.7611 8.00958 26.7702 7.86415 26.8097 7.72562C26.8492 7.58709 26.9182 7.45873 27.012 7.34934C27.1057 7.23994 27.2219 7.15208 27.3528 7.09178C27.4836 7.03148 27.6259 7.00016 27.77 6.99996H49C49.2652 6.99996 49.5195 6.89461 49.7071 6.70707C49.8946 6.51953 50 6.26518 50 5.99996V4.99996C50 4.73475 49.8946 4.48039 49.7071 4.29286C49.5195 4.10532 49.2652 3.99996 49 3.99996H14.429ZM50 53.75C48.9394 53.7489 47.9226 53.3271 47.1727 52.5772C46.4228 51.8273 46.001 50.8105 46 49.75C46 47.764 48.759 45.048 49.313 44.524C49.4984 44.348 49.7443 44.2499 50 44.2499C50.2556 44.2499 50.5015 44.348 50.687 44.524C51.241 45.048 54 47.764 54 49.75C53.9989 50.8105 53.5771 51.8273 52.8272 52.5772C52.0773 53.3271 51.0605 53.7489 50 53.75ZM50 46.673C48.942 47.814 48 49.148 48 49.75C48 50.2804 48.2107 50.7891 48.5858 51.1642C48.9608 51.5393 49.4695 51.75 50 51.75C50.5304 51.75 51.0391 51.5393 51.4142 51.1642C51.7893 50.7891 52 50.2804 52 49.75C52 49.148 51.058 47.814 50 46.673ZM26.64 62H9.35997C8.92439 61.9998 8.49408 61.9048 8.09893 61.7215C7.70378 61.5382 7.35329 61.2711 7.0718 60.9387C6.7903 60.6063 6.58457 60.2166 6.4689 59.7966C6.35323 59.3767 6.33039 58.9366 6.40197 58.507L7.01397 54.835C7.053 54.6016 7.17348 54.3897 7.35401 54.2368C7.53453 54.084 7.76341 54 7.99997 54H28C28.2365 54 28.4654 54.084 28.6459 54.2368C28.8265 54.3897 28.9469 54.6016 28.986 54.835L29.598 58.507C29.6695 58.9366 29.6467 59.3767 29.531 59.7966C29.4154 60.2166 29.2096 60.6063 28.9281 60.9387C28.6467 61.2711 28.2962 61.5382 27.901 61.7215C27.5059 61.9048 27.0755 61.9998 26.64 62ZM8.84597 56L8.37397 58.836C8.35016 58.9792 8.35782 59.1258 8.3964 59.2658C8.43498 59.4057 8.50357 59.5356 8.59739 59.6463C8.69122 59.7571 8.80803 59.8461 8.93972 59.9072C9.0714 59.9682 9.21481 59.9999 9.35997 60H26.638C26.7831 59.9999 26.9265 59.9682 27.0582 59.9072C27.1899 59.8461 27.3067 59.7571 27.4005 59.6463C27.4944 59.5356 27.563 59.4057 27.6015 59.2658C27.6401 59.1258 27.6478 58.9792 27.624 58.836L27.153 56H8.84597Z" fill="#0000FF"/>
</svg>
