<svg width="64" height="64" viewBox="0 0 64 64" fill="none" xmlns="http://www.w3.org/2000/svg">
<path d="M52 4.00005H7.13C6.42051 3.98676 5.72805 4.21807 5.16899 4.65512C4.60993 5.09217 4.21834 5.70832 4.06 6.40005C3.97102 6.83598 3.98011 7.28623 4.08662 7.71821C4.19312 8.15018 4.39437 8.55306 4.67579 8.89766C4.95721 9.24226 5.31176 9.51995 5.71374 9.71061C6.11573 9.90128 6.55509 10.0001 7 10.0001H52C52.779 9.99929 53.5412 10.226 54.1932 10.6523C54.8451 11.0787 55.3584 11.6861 55.67 12.4001C55.7467 12.5758 55.8723 12.7259 56.0319 12.8322C56.1915 12.9386 56.3782 12.9969 56.57 13.0001C56.7376 13.0014 56.9029 12.9605 57.0507 12.8813C57.1984 12.8021 57.3238 12.6869 57.4154 12.5465C57.507 12.4061 57.5619 12.245 57.5749 12.0778C57.5879 11.9107 57.5587 11.743 57.49 11.5901C57.0221 10.5233 56.2539 9.61588 55.279 8.9784C54.3042 8.34091 53.1648 8.00097 52 8.00005H7C6.73479 8.00005 6.48043 7.8947 6.2929 7.70716C6.10536 7.51962 6 7.26527 6 7.00005C6 6.73484 6.10536 6.48048 6.2929 6.29295C6.48043 6.10541 6.73479 6.00005 7 6.00005H51.72C53.7859 5.96658 55.7879 6.71612 57.3239 8.0981C58.8598 9.48009 59.8159 11.3921 60 13.4501C60.0755 14.546 59.9245 15.6457 59.5565 16.6807C59.1884 17.7157 58.6111 18.6638 57.8606 19.4659C57.11 20.2681 56.2023 20.907 55.1941 21.343C54.1858 21.779 53.0985 22.0027 52 22.0001H45V20.0001H52C53.1648 19.9991 54.3042 19.6592 55.279 19.0217C56.2539 18.3842 57.0221 17.4768 57.49 16.4101C57.5587 16.2572 57.5879 16.0894 57.5749 15.9223C57.5619 15.7552 57.507 15.594 57.4154 15.4536C57.3238 15.3132 57.1984 15.1981 57.0507 15.1188C56.9029 15.0396 56.7376 14.9987 56.57 15.0001C56.3782 15.0032 56.1915 15.0615 56.0319 15.1679C55.8723 15.2742 55.7467 15.4243 55.67 15.6001C55.3584 16.314 54.8451 16.9214 54.1932 17.3478C53.5412 17.7741 52.779 18.0008 52 18.0001H50V16.5001C50.0077 16.0378 49.9233 15.5787 49.7516 15.1494C49.5799 14.7202 49.3244 14.3295 49 14.0001C48.3359 13.3553 47.4456 12.9963 46.52 13.0001H7C6.20435 13.0001 5.44129 13.3161 4.87868 13.8787C4.31607 14.4413 4 15.2044 4 16.0001V19.0001C4 19.2653 4.10536 19.5196 4.2929 19.7072C4.48043 19.8947 4.73479 20.0001 5 20.0001C5.26522 20.0001 5.51957 19.8947 5.70711 19.7072C5.89464 19.5196 6 19.2653 6 19.0001V16.0001C6 15.7348 6.10536 15.4805 6.2929 15.2929C6.48043 15.1054 6.73479 15.0001 7 15.0001H43.34V15.0601C43.2763 15.2062 43.2228 15.3565 43.18 15.5101C43.1488 15.5919 43.1221 15.6753 43.1 15.7601C43.0482 16.0034 43.0214 16.2513 43.02 16.5001V27.1101L42.82 27.1701L42.55 27.2501L42.23 27.3801L41.96 27.5101L41.59 27.7401L41.39 27.8901L41.17 28.0701L40.98 28.2401C40.9118 28.2983 40.8482 28.3618 40.79 28.4301L40.61 28.6001L40.44 28.8001L40.28 28.9801L40.14 29.1401C40.0964 29.1991 40.0496 29.2559 40 29.3101C39.15 30.3101 38.62 30.9001 37.52 30.9001C37.3852 30.8913 37.2514 30.8713 37.12 30.8401C37.0054 30.8339 36.8916 30.8172 36.78 30.7901L36.65 30.7301C35.9893 30.4031 35.4217 29.9147 35 29.3101C34.5682 28.6317 33.9791 28.0676 33.2827 27.6655C32.5864 27.2633 31.8034 27.0351 31 27.0001C30.8056 27.0005 30.6116 27.0172 30.42 27.0501C29.4866 27.1657 28.6179 27.5878 27.95 28.2501C27.5949 28.5822 27.2609 28.9362 26.95 29.3101L26.75 29.5401C26.02 30.4001 25.48 30.9001 24.47 30.9001C23.46 30.9001 22.84 30.3301 21.99 29.3101C21.6425 28.8742 21.2613 28.4663 20.85 28.0901C20.0718 27.3797 19.0536 26.9903 18 27.0001C17.4917 26.9963 16.987 27.0844 16.51 27.2601C15.6378 27.6101 14.8749 28.1866 14.3 28.9301L13.98 29.3101C13.13 30.3101 12.6 30.9001 11.5 30.9001C11.4401 30.9055 11.3799 30.9055 11.32 30.9001C10.9215 30.8669 10.5354 30.7456 10.1896 30.545C9.84368 30.3444 9.54668 30.0694 9.32 29.7401C9.2 29.6101 9.09 29.4901 8.97 29.3401C8.85 29.1901 8.55 28.8401 8.31 28.5901L8.23 28.5001L8 28.2001L7.87 28.0901L7.58 27.8601L7.44 27.7501C7.29839 27.649 7.15152 27.5555 7 27.4701L6.82 27.4001C6.7114 27.34 6.5976 27.2898 6.48 27.2501L6.22 27.1701L6 27.1101V23.0001C6 22.7348 5.89464 22.4805 5.70711 22.2929C5.51957 22.1054 5.26522 22.0001 5 22.0001C4.73479 22.0001 4.48043 22.1054 4.2929 22.2929C4.10536 22.4805 4 22.7348 4 23.0001V57.0001C4 57.7957 4.31607 58.5588 4.87868 59.1214C5.44129 59.684 6.20435 60.0001 7 60.0001H42C42.7957 60.0001 43.5587 59.684 44.1213 59.1214C44.6839 58.5588 45 57.7957 45 57.0001V55.0001H48C48.5304 55.0001 49.0391 54.7893 49.4142 54.4143C49.7893 54.0392 50 53.5305 50 53.0001V24.0001H51.64C54.2227 24.041 56.7255 23.1043 58.6467 21.3778C60.568 19.6513 61.7657 17.2624 62 14.6901C62.0948 13.32 61.9063 11.9451 61.4464 10.651C60.9864 9.35695 60.2649 8.17151 59.3267 7.16857C58.3885 6.16563 57.2537 5.3667 55.9932 4.82156C54.7327 4.27643 53.3734 3.99678 52 4.00005ZM45 16.5001C45 16.1022 45.158 15.7207 45.4393 15.4394C45.7206 15.1581 46.1022 15.0001 46.5 15.0001C46.6971 14.9991 46.8924 15.0376 47.0744 15.1131C47.2564 15.1887 47.4215 15.2998 47.56 15.4401C47.8414 15.7211 47.9997 16.1024 48 16.5001V18.0001H45V16.5001ZM42.56 43.3401C42.3917 43.3979 42.2279 43.4681 42.07 43.5501C41.9029 43.6382 41.7425 43.7385 41.59 43.8501L41.51 43.9101C41.3871 43.9953 41.2702 44.0889 41.16 44.1901L41.05 44.2801L40.76 44.5601L40.67 44.6501L40.38 44.9701V45.0301L40.06 45.4001C39.21 46.4001 38.68 46.9901 37.58 46.9901C37.4147 46.9836 37.2505 46.9601 37.09 46.9201C37.0067 46.9249 36.9233 46.9249 36.84 46.9201L36.67 46.8401C36.0081 46.5021 35.4358 46.012 35 45.4101C34.2372 44.2657 33.0623 43.4597 31.72 43.1601C31.2299 43.08 30.7301 43.08 30.24 43.1601C29.433 43.2918 28.6821 43.6568 28.08 44.2101C27.6942 44.586 27.3334 44.9869 27 45.4101L26.78 45.6601C26.5413 46.0487 26.2119 46.3737 25.82 46.6071C25.4281 46.8405 24.9854 46.9753 24.53 47.0001C23.43 47.0001 22.9 46.4301 22.05 45.4101C21.7185 44.9854 21.3504 44.5905 20.95 44.2301C20.1541 43.4792 19.0939 43.0731 18 43.1001C17.5628 43.0962 17.1276 43.1603 16.71 43.2901C15.754 43.6122 14.9129 44.2066 14.29 45.0001L13.98 45.3701C13.13 46.3701 12.6 46.9601 11.5 46.9601C11.4168 46.9664 11.3332 46.9664 11.25 46.9601C10.878 46.9083 10.5204 46.7815 10.1989 46.5872C9.87741 46.393 9.5988 46.1354 9.38 45.8301L9 45.4101L8.52 44.8501L8.39 44.7101L8.21 44.5301L8.01 44.3301L7.84 44.1801L7.58 44.0001L7.44 43.8901C7.30152 43.7726 7.15445 43.6656 7 43.5701H6.93C6.79 43.5001 6.63 43.4401 6.48 43.3801L6.29 43.3201L6 43.2101V37.2901C6.09967 37.334 6.19652 37.3841 6.29 37.4401H6.35C6.52879 37.5723 6.69605 37.7195 6.85 37.8801L6.97 38.0201C7.13 38.1901 7.3 38.3801 7.48 38.6001C8.34 39.6001 9.4 40.9101 11.48 40.9101C12.2834 40.875 13.0664 40.6468 13.7627 40.2446C14.4591 39.8425 15.0482 39.2784 15.48 38.6001C16.33 37.6001 16.86 37.0101 17.97 37.0101C19.08 37.0101 19.6 37.5801 20.44 38.6001C20.8719 39.2784 21.4609 39.8425 22.1573 40.2446C22.8536 40.6468 23.6367 40.875 24.44 40.9101C25.2434 40.875 26.0264 40.6468 26.7227 40.2446C27.4191 39.8425 28.0082 39.2784 28.44 38.6001C29.28 37.6001 29.82 37.0101 30.92 37.0101C32.02 37.0101 32.56 37.5801 33.4 38.6001C33.8319 39.2784 34.4209 39.8425 35.1173 40.2446C35.8136 40.6468 36.5967 40.875 37.4 40.9101C38.2034 40.875 38.9864 40.6468 39.6827 40.2446C40.3791 39.8425 40.9682 39.2784 41.4 38.6001C41.58 38.3801 41.74 38.1901 41.91 38.0201L42.03 37.8801C42.184 37.7195 42.3512 37.5723 42.53 37.4401H42.58L42.88 37.2901V43.2101L42.62 43.2801L42.56 43.3401ZM6 35.1601V29.2401C6.09967 29.284 6.19652 29.3341 6.29 29.3901H6.35C6.5276 29.52 6.69175 29.6674 6.84 29.8301L7 30.0001L7.5 30.5601C7.83278 30.9743 8.19363 31.3653 8.58 31.7301C9.16847 32.2708 9.89543 32.6378 10.68 32.7901H11.52C12.1289 32.7934 12.7315 32.6676 13.2882 32.4212C13.845 32.1747 14.3432 31.813 14.75 31.3601C15.0266 31.0819 15.287 30.788 15.53 30.4801C16.26 29.6101 16.78 29.0801 17.61 28.9501C17.7412 28.9559 17.8716 28.9726 18 29.0001C18.3943 29.0124 18.7804 29.1164 19.1276 29.3039C19.4747 29.4913 19.7734 29.7571 20 30.0801L20.44 30.5901C20.9849 31.3156 21.6638 31.9301 22.44 32.4001H22.52C22.52 32.4001 22.62 32.4001 22.67 32.4701C22.72 32.5401 22.94 32.5901 23.09 32.6401C23.538 32.7898 24.0077 32.8641 24.48 32.8601C24.7279 32.8612 24.9755 32.8411 25.22 32.8001C26.3128 32.6029 27.2989 32.0211 28 31.1601L28.49 30.5901L28.63 30.4201C29.41 29.5201 30 29.0001 31 29.0001C31.2307 28.9953 31.4605 29.0291 31.68 29.1001C32.1933 29.2752 32.6494 29.5863 33 30.0001C33.16 30.1801 33.33 30.3701 33.51 30.5901C34.0903 31.3804 34.8381 32.0326 35.7 32.5001C36.2756 32.7696 36.9044 32.9063 37.54 32.9001C38.3434 32.865 39.1264 32.6368 39.8227 32.2346C40.5191 31.8325 41.1082 31.2684 41.54 30.5901C41.72 30.3701 41.88 30.1901 42.04 30.0101C42.0841 29.9609 42.1309 29.9142 42.18 29.8701C42.3273 29.7101 42.4878 29.5629 42.66 29.4301H42.74C42.829 29.3724 42.9227 29.3222 43.02 29.2801V35.2001L42.77 35.2701L42.57 35.3301C42.4168 35.3855 42.2666 35.4489 42.12 35.5201H42.04L41.57 35.8101L41.45 35.9101C41.3433 35.9814 41.243 36.0616 41.15 36.1501L41.01 36.2701L40.76 36.5101L40.63 36.6401L40.4 36.9101C40.3616 36.9417 40.3279 36.9788 40.3 37.0201L40 37.3701C39.15 38.3701 38.62 38.9601 37.52 38.9601C36.42 38.9601 35.88 38.3901 35.03 37.3701C34.5982 36.6917 34.0091 36.1276 33.3127 35.7255C32.6164 35.3233 31.8334 35.0951 31.03 35.0601C30.2267 35.0951 29.4436 35.3233 28.7473 35.7255C28.0509 36.1276 27.4619 36.6917 27.03 37.3701C26.19 38.3701 25.65 38.9601 24.55 38.9601C23.45 38.9601 22.92 38.3901 22.07 37.3701C21.22 36.3501 20.15 35.0601 18.07 35.0601C17.2667 35.0951 16.4836 35.3233 15.7873 35.7255C15.0909 36.1276 14.5019 36.6917 14.07 37.3701C13.22 38.3701 12.69 38.9601 11.59 38.9601C10.49 38.9601 9.86 38.3801 9 37.3601L8.72 37.0001L8.62 36.8801L8.39 36.6301L8.25 36.4901C8.17144 36.4115 8.08793 36.338 8 36.2701C7.95587 36.2209 7.90913 36.1742 7.86 36.1301L7.57 35.9001L7.43 35.8001C7.29473 35.6949 7.1509 35.6012 7 35.5201C6.97361 35.5147 6.9464 35.5147 6.92 35.5201L6.48 35.3301L6.28 35.2701L6 35.1601ZM48 53.0001H45V52.0001C45 51.7348 44.8946 51.4805 44.7071 51.2929C44.5196 51.1054 44.2652 51.0001 44 51.0001C43.7348 51.0001 43.4804 51.1054 43.2929 51.2929C43.1054 51.4805 43 51.7348 43 52.0001V57.0001C43 57.2653 42.8946 57.5196 42.7071 57.7072C42.5196 57.8947 42.2652 58.0001 42 58.0001H7C6.73479 58.0001 6.48043 57.8947 6.2929 57.7072C6.10536 57.5196 6 57.2653 6 57.0001V45.3401C6.10725 45.3854 6.21089 45.4389 6.31 45.5001C6.48879 45.6323 6.65605 45.7795 6.81 45.9401L6.97 46.1201C7.13 46.2901 7.28 46.4601 7.45 46.6701C7.80291 47.1106 8.19084 47.522 8.61 47.9001C9.10514 48.3445 9.69771 48.6665 10.34 48.8401C10.7172 48.9477 11.1077 49.0015 11.5 49.0001C12.0971 49.0052 12.6886 48.885 13.2363 48.6473C13.7841 48.4096 14.2759 48.0596 14.68 47.6201C14.99 47.3101 15.26 46.9901 15.51 46.6901C16.26 45.7901 16.79 45.2601 17.66 45.1501C17.7731 45.139 17.8869 45.139 18 45.1501C18.4043 45.1585 18.8008 45.2625 19.1572 45.4537C19.5135 45.6449 19.8195 45.9178 20.05 46.2501L20.47 46.7401C20.9797 47.4186 21.6061 48.0011 22.32 48.4601C22.7568 48.7298 23.2429 48.91 23.75 48.9901C23.9945 49.0311 24.2421 49.0512 24.49 49.0501C25.1869 49.0428 25.8729 48.8758 26.4952 48.5621C27.1176 48.2483 27.6597 47.796 28.08 47.2401L28.51 46.7401L28.64 46.5901C29.41 45.6301 30 45.1001 31 45.1001C31.3883 45.0993 31.7713 45.1893 32.1186 45.3629C32.4658 45.5366 32.7677 45.789 33 46.1001C33.16 46.2801 33.32 46.4601 33.5 46.6801C34.0383 47.4197 34.7181 48.0452 35.5 48.5201C36.1195 48.8322 36.8065 48.9867 37.5 48.9701C38.3034 48.935 39.0864 48.7068 39.7827 48.3046C40.4791 47.9025 41.0682 47.3384 41.5 46.6601C41.5496 46.6059 41.5964 46.5491 41.64 46.4901L41.98 46.1001L42.14 45.9401C42.2908 45.777 42.4547 45.6265 42.63 45.4901C42.7291 45.4289 42.8328 45.3754 42.94 45.3301V48.0001C42.94 48.2653 43.0454 48.5196 43.2329 48.7072C43.4204 48.8947 43.6748 49.0001 43.94 49.0001C44.2052 49.0001 44.4596 48.8947 44.6471 48.7072C44.8346 48.5196 44.94 48.2653 44.94 48.0001V24.0001H47.94L48 53.0001Z" fill="#0000FF"/>
</svg>
