<svg width="2000" height="2000" viewBox="0 0 2000 2000" fill="none" xmlns="http://www.w3.org/2000/svg">
<path d="M1860.14 1556.88H1356.61L1476.84 1521.9H1750.21C1761.25 1521.9 1770.21 1512.94 1770.21 1501.9V433.47C1770.21 422.42 1761.25 413.47 1750.21 413.47H1476.84L1165.58 322.91C1159.53 321.15 1153.02 322.34 1147.99 326.12C1142.96 329.9 1140 335.82 1140 342.12V413.48H860V342.12C860 335.83 857.04 329.9 852.01 326.12C846.98 322.34 840.46 321.15 834.42 322.91L523.16 413.47H249.79C238.75 413.47 229.79 422.42 229.79 433.47V1501.9C229.79 1512.94 238.75 1521.9 249.79 1521.9H523.16L643.39 1556.88H139.86C128.82 1556.88 119.86 1565.84 119.86 1576.88V1657.88C119.86 1668.92 128.82 1677.88 139.86 1677.88H1860.14C1871.18 1677.88 1880.14 1668.92 1880.14 1657.88V1576.88C1880.14 1565.84 1871.18 1556.88 1860.14 1556.88ZM1140 1556.88H860V1521.9H1140V1556.88ZM521.89 947.69H339.79V508.49L521.9 455.51V947.69H521.89ZM339.79 987.69H521.9V1479.88L339.79 1426.9V987.69ZM561.89 987.69H820V1566.61L561.89 1491.51V987.69ZM1180 987.69H1438.11V1491.52L1180 1566.62V987.69ZM1478.11 455.5L1660.22 508.48V947.68H1478.11V455.5ZM1660.21 987.69V1426.89L1478.1 1479.87V987.69H1660.21ZM1730.22 453.47V1481.9H1614.33L1685.81 1461.1C1694.35 1458.62 1700.22 1450.79 1700.22 1441.9V493.47C1700.22 484.58 1694.35 476.75 1685.81 474.27L1614.33 453.47H1730.22ZM1438.11 443.86V947.69H1180V368.77L1438.11 443.86ZM1140 453.47V1481.9H860V453.47H1140ZM820 947.69H561.89V443.86L820 368.77V947.69ZM269.79 1481.9V453.47H385.68L314.2 474.27C305.66 476.76 299.79 484.58 299.79 493.47V1441.9C299.79 1450.79 305.66 1458.62 314.2 1461.1L385.68 1481.9H269.79ZM1840.14 1637.88H159.86V1596.88H780.87L834.41 1612.46C836.25 1613 838.13 1613.26 840 1613.26C844.28 1613.26 848.5 1611.88 852.01 1609.26C856.06 1606.22 858.74 1601.78 859.64 1596.89H1140.37C1141.27 1601.78 1143.95 1606.22 1148 1609.26C1151.5 1611.89 1155.73 1613.26 1160.01 1613.26C1161.88 1613.26 1163.76 1613 1165.6 1612.46L1219.14 1596.88H1840.15V1637.88H1840.14Z" fill="#0000FF"/>
</svg>
